<?xml version="1.0" encoding="UTF-8"?>
<svg width="780px" height="295px" viewBox="0 0 780 295" version="1.1" xmlns="http://www.w3.org/2000/svg" xmlns:xlink="http://www.w3.org/1999/xlink">
    <!-- Generator: Sketch 52.6 (67491) - http://www.bohemiancoding.com/sketch -->
    <title>Closedown - business</title>
    <desc>Created with Sketch.</desc>
    <g id="Closedown---business" stroke="none" stroke-width="1" fill="none" fill-rule="evenodd">
        <rect fill="#FFFFFF" x="0" y="0" width="780" height="295"></rect>
        <path d="M20,150 L760,150" id="Line-7" stroke="#0B0C0C" stroke-linecap="square" fill-rule="nonzero"></path>
        <g id="HMRC">
            <path d="M586.5,26.5 L586.5,123.5 L733.5,123.5 L733.5,26.5 L586.5,26.5 Z" id="Rectangle" stroke="#005EA5" stroke-width="3" fill="#F1F7FA" fill-rule="nonzero"></path>
            <path d="M642.243164,74.3964844 L636.38916,74.3964844 L636.38916,80 L633.69873,80 L633.69873,66.6962891 L636.38916,66.6962891 L636.38916,71.9658203 L642.243164,71.9658203 L642.243164,66.6962891 L644.942871,66.6962891 L644.942871,80 L642.243164,80 L642.243164,74.3964844 Z M654.34082,75.7045898 L650.407227,70.7875977 L650.407227,80 L647.716797,80 L647.716797,66.6962891 L650.444336,66.6962891 L654.37793,71.8916016 L658.432129,66.6962891 L661.04834,66.6962891 L661.04834,80 L658.348633,80 L658.348633,70.7875977 L654.433594,75.7045898 L654.34082,75.7045898 Z M663.831543,66.6962891 L668.980469,66.6962891 C669.772139,66.6962891 670.471026,66.8107085 671.077148,67.0395508 C671.683271,67.2683931 672.190428,67.5745424 672.598633,67.9580078 C673.006838,68.3414733 673.31608,68.7821427 673.526367,69.2800293 C673.736655,69.7779159 673.841797,70.2989882 673.841797,70.8432617 C673.841797,71.2823915 673.77531,71.6983216 673.642334,72.0910645 C673.509358,72.4838073 673.326905,72.8394353 673.094971,73.157959 C672.863036,73.4764827 672.589357,73.7517078 672.273926,73.9836426 C671.958495,74.2155773 671.618329,74.3964837 671.253418,74.5263672 L674.166504,80 L671.067871,80 L668.655762,75.2128906 L666.521973,75.2128906 L666.521973,80 L663.831543,80 L663.831543,66.6962891 Z M671.030762,70.9360352 C671.030762,70.6700833 670.982829,70.4226899 670.886963,70.1938477 C670.791097,69.9650054 670.645753,69.7670907 670.450928,69.6000977 C670.256103,69.4331046 670.013348,69.3032231 669.722656,69.2104492 C669.431965,69.1176753 669.094891,69.0712891 668.711426,69.0712891 L666.521973,69.0712891 L666.521973,72.8193359 L668.711426,72.8193359 C669.094891,72.8193359 669.431965,72.7714035 669.722656,72.6755371 C670.013348,72.5796707 670.256103,72.4466968 670.450928,72.2766113 C670.645753,72.1065258 670.791097,71.9070649 670.886963,71.6782227 C670.982829,71.4493804 671.030762,71.201987 671.030762,70.9360352 Z M675.381836,73.3481445 C675.381836,72.3956658 675.525633,71.5035035 675.813232,70.6716309 C676.100832,69.8397582 676.513669,69.1161326 677.051758,68.5007324 C677.589846,67.8853322 678.242346,67.3998227 679.009277,67.0441895 C679.776208,66.6885562 680.638993,66.5107422 681.597656,66.5107422 C682.290368,66.5107422 682.932045,66.6004223 683.522705,66.7797852 C684.113366,66.959148 684.645261,67.2127262 685.118408,67.5405273 C685.591555,67.8683285 685.998208,68.2641578 686.338379,68.7280273 C686.67855,69.1918969 686.94759,69.7114229 687.145508,70.2866211 L684.557129,71.1494141 C684.48291,70.902017 684.365398,70.6468926 684.20459,70.3840332 C684.043782,70.1211738 683.839682,69.8830577 683.592285,69.6696777 C683.344888,69.4562978 683.055747,69.2815762 682.724854,69.1455078 C682.39396,69.0094394 682.024416,68.9414062 681.616211,68.9414062 C681.003903,68.9414062 680.479739,69.0666491 680.043701,69.3171387 C679.607664,69.5676282 679.25049,69.8985168 678.972168,70.3098145 C678.693846,70.7211121 678.488201,71.188067 678.355225,71.7106934 C678.222249,72.2333197 678.155762,72.7667616 678.155762,73.3110352 L678.155762,73.3852539 C678.155762,73.9357124 678.222249,74.4722467 678.355225,74.994873 C678.488201,75.5174994 678.693846,75.9829081 678.972168,76.3911133 C679.25049,76.7993184 679.607664,77.1286609 680.043701,77.3791504 C680.479739,77.6296399 681.003903,77.7548828 681.616211,77.7548828 C682.024416,77.7548828 682.39396,77.6868496 682.724854,77.5507812 C683.055747,77.4147129 683.344888,77.2399913 683.592285,77.0266113 C683.839682,76.8132314 684.043782,76.5766615 684.20459,76.3168945 C684.365398,76.0571276 684.48291,75.8035494 684.557129,75.5561523 L687.145508,76.409668 C686.94759,76.9848662 686.67855,77.5043922 686.338379,77.9682617 C685.998208,78.4321312 685.591555,78.8295068 685.118408,79.1604004 C684.645261,79.491294 684.113366,79.7448722 683.522705,79.9211426 C682.932045,80.097413 682.290368,80.1855469 681.597656,80.1855469 C680.638993,80.1855469 679.776208,80.0092791 679.009277,79.6567383 C678.242346,79.3041975 677.589846,78.818688 677.051758,78.2001953 C676.513669,77.5817026 676.100832,76.8580771 675.813232,76.0292969 C675.525633,75.2005167 675.381836,74.3068082 675.381836,73.3481445 Z" fill="#005EA5"></path>
            <rect id="Rectangle" stroke="#000000" fill-rule="nonzero" x="0.5" y="0.5" width="779" height="294"></rect>
        </g>
        <g id="Business" transform="translate(58.000000, 37.000000)">
            <g id="Group-3" fill-rule="nonzero" stroke="#2E358B" stroke-width="4">
                <g id="Group" transform="translate(0.000000, 0.500000)">
                    <ellipse id="Oval" fill-opacity="0.05" fill="#2E358B" cx="32.5" cy="19.3043259" rx="17.5" ry="19.3043259"></ellipse>
                    <path d="M-1.93354765,72.3938672 C-0.81801581,54.3104053 14.2025352,40 32.5545454,40 C51.5749163,40 67.0167528,55.371725 67.1087023,74.3936441 L67.1090908,80.0203557 L67.1090908,80.0204938 L67.1090908,87.6472053 L-2,87.6472053 L-2,72.3938701 L-1.93354765,72.3938672 Z" id="Combined-Shape" fill-opacity="0.05" fill="#2E358B" stroke-linejoin="round"></path>
                    <path d="M17.2820426,70.8458192 L17.2820426,85.9826192" id="Line-12" stroke-linecap="round"></path>
                    <path d="M47.8270482,70.8458192 L47.8270482,85.9826192" id="Line-12" stroke-linecap="round"></path>
                </g>
            </g>
            <path d="M74.4904785,29.6962891 C75.0471219,29.6962891 75.5635556,29.7782381 76.0397949,29.9421387 C76.5160343,30.1060392 76.9304182,30.3395167 77.282959,30.6425781 C77.6354998,30.9456395 77.9107249,31.3120909 78.1086426,31.7419434 C78.3065602,32.1717958 78.4055176,32.6495742 78.4055176,33.175293 C78.4055176,33.4474297 78.3668624,33.71647 78.2895508,33.9824219 C78.2122392,34.2483737 78.099366,34.4973133 77.9509277,34.729248 C77.8024895,34.9611828 77.6231293,35.1730134 77.4128418,35.3647461 C77.2025543,35.5564788 76.9644382,35.7141921 76.6984863,35.8378906 C76.9149588,35.9121097 77.1669907,36.0234368 77.4545898,36.171875 C77.7421889,36.3203132 78.0158678,36.5244128 78.2756348,36.7841797 C78.5354017,37.0439466 78.7549633,37.3640118 78.9343262,37.7443848 C79.113689,38.1247578 79.2033691,38.5839817 79.2033691,39.1220703 C79.2033691,39.7962273 79.0750338,40.3776017 78.8183594,40.8662109 C78.5616849,41.3548202 78.2153342,41.7568344 77.7792969,42.0722656 C77.3432595,42.3876969 76.8330107,42.6211744 76.2485352,42.7727051 C75.6640596,42.9242358 75.0471224,43 74.3977051,43 L68.5715332,43 L68.5715332,29.6962891 L74.4904785,29.6962891 Z M76.447998,39.0292969 C76.447998,38.6705711 76.3830573,38.3767915 76.2531738,38.1479492 C76.1232904,37.9191069 75.9516612,37.7366543 75.7382812,37.6005859 C75.5249013,37.4645175 75.2821465,37.3701988 75.0100098,37.317627 C74.737873,37.2650551 74.4595555,37.2387695 74.1750488,37.2387695 L71.2619629,37.2387695 L71.2619629,40.8754883 L74.1750488,40.8754883 C74.4595555,40.8754883 74.737873,40.8476565 75.0100098,40.7919922 C75.2821465,40.7363278 75.5249013,40.6373705 75.7382812,40.4951172 C75.9516612,40.3528639 76.1232904,40.1642264 76.2531738,39.9291992 C76.3830573,39.694172 76.447998,39.3942076 76.447998,39.0292969 Z M75.6965332,33.4443359 C75.6965332,32.9371719 75.5357275,32.5413426 75.2141113,32.2568359 C74.8924951,31.9723293 74.3729691,31.8300781 73.6555176,31.8300781 L71.2619629,31.8300781 L71.2619629,34.9658203 L73.6555176,34.9658203 C74.3605992,34.9658203 74.8770329,34.8313002 75.204834,34.5622559 C75.5326351,34.2932115 75.6965332,33.9205753 75.6965332,33.4443359 Z M89.3898926,43 L86.8293457,43 L86.8293457,42.1464844 C86.6870924,42.2825528 86.5324715,42.4139805 86.3654785,42.5407715 C86.1984855,42.6675625 86.0129405,42.7788895 85.8088379,42.8747559 C85.6047353,42.9706222 85.3774427,43.0463864 85.1269531,43.1020508 C84.8764636,43.1577151 84.5996923,43.1855469 84.2966309,43.1855469 C83.7585422,43.1855469 83.2761252,43.097413 82.8493652,42.9211426 C82.4226053,42.7448722 82.0623387,42.5036636 81.7685547,42.1975098 C81.4747707,41.8913559 81.2505704,41.5310893 81.0959473,41.1166992 C80.9413241,40.7023091 80.8640137,40.2539087 80.8640137,39.7714844 L80.8640137,33.0639648 L83.4245605,33.0639648 L83.4245605,38.8344727 C83.4245605,39.1870135 83.4632158,39.4869779 83.5405273,39.734375 C83.6178389,39.9817721 83.7260735,40.181233 83.8652344,40.3327637 C84.0043952,40.4842944 84.1698395,40.5956214 84.3615723,40.666748 C84.553305,40.7378747 84.7604969,40.7734375 84.9831543,40.7734375 C85.2429212,40.7734375 85.485676,40.7270512 85.7114258,40.6342773 C85.9371756,40.5415034 86.1335441,40.4007985 86.3005371,40.2121582 C86.4675301,40.0235179 86.5974116,39.786948 86.6901855,39.5024414 C86.7829594,39.2179348 86.8293457,38.8839537 86.8293457,38.5004883 L86.8293457,33.0639648 L89.3898926,33.0639648 L89.3898926,43 Z M92.3029785,39.8271484 C92.6678892,40.1549496 93.10392,40.4363595 93.611084,40.6713867 C94.118248,40.9064139 94.6315892,41.0239258 95.151123,41.0239258 C95.5284036,41.0239258 95.8252756,40.951254 96.041748,40.8059082 C96.2582205,40.6605624 96.3664551,40.4734712 96.3664551,40.2446289 C96.3664551,39.8549785 95.9489788,39.5519217 95.1140137,39.3354492 L94.3903809,39.140625 C94.0316551,39.054036 93.6698423,38.934978 93.3049316,38.7834473 C92.940021,38.6319166 92.6044937,38.4324557 92.2983398,38.1850586 C91.992186,37.9376615 91.7447926,37.6361509 91.5561523,37.2805176 C91.3675121,36.9248843 91.2731934,36.4873073 91.2731934,35.9677734 C91.2731934,35.5533833 91.3644197,35.1591002 91.546875,34.7849121 C91.7293303,34.410724 91.9890934,34.0813816 92.3261719,33.796875 C92.6632504,33.5123684 93.0729956,33.2866219 93.5554199,33.1196289 C94.0378442,32.9526359 94.5759248,32.8691406 95.1696777,32.8691406 C96.0170127,32.8691406 96.7731087,33.0021146 97.4379883,33.2680664 C98.1028679,33.5340183 98.6270326,33.8339827 99.010498,34.1679688 L97.6745605,35.875 C97.3591293,35.6461577 96.986493,35.4497892 96.5566406,35.2858887 C96.1267882,35.1219881 95.695396,35.0400391 95.2624512,35.0400391 C94.8604309,35.0400391 94.5480968,35.1127109 94.3254395,35.2580566 C94.1027821,35.4034024 93.9914551,35.578124 93.9914551,35.7822266 C93.9914551,35.998699 94.0888662,36.1734206 94.2836914,36.3063965 C94.4785166,36.4393724 94.7614728,36.555338 95.1325684,36.6542969 L96.2087402,36.9604492 C97.2354381,37.2511408 97.9714333,37.6438777 98.416748,38.1386719 C98.8620628,38.633466 99.0847168,39.2581342 99.0847168,40.0126953 C99.0847168,40.4332703 98.9981291,40.8337383 98.8249512,41.2141113 C98.6517732,41.5944843 98.398195,41.933104 98.064209,42.2299805 C97.7302229,42.526857 97.3158391,42.7603344 96.8210449,42.9304199 C96.3262508,43.1005054 95.7634309,43.1855469 95.1325684,43.1855469 C94.6501441,43.1855469 94.197105,43.142253 93.7734375,43.0556641 C93.34977,42.9690751 92.9570331,42.850017 92.5952148,42.6984863 C92.2333966,42.5469556 91.9071466,42.3753265 91.6164551,42.1835938 C91.3257635,41.991861 91.0783702,41.8001312 90.8742676,41.6083984 L92.3029785,39.8271484 Z M103.296631,43 L100.736084,43 L100.736084,33.0639648 L103.296631,33.0639648 L103.296631,43 Z M100.467041,30.4570312 C100.467041,30.2467437 100.507242,30.0472828 100.587646,29.8586426 C100.668051,29.6700023 100.777831,29.5061042 100.916992,29.3669434 C101.056153,29.2277825 101.218505,29.1180017 101.404053,29.0375977 C101.589601,28.9571936 101.790608,28.9169922 102.00708,28.9169922 C102.217368,28.9169922 102.416828,28.9571936 102.605469,29.0375977 C102.794109,29.1180017 102.958007,29.2277825 103.097168,29.3669434 C103.236329,29.5061042 103.34611,29.6700023 103.426514,29.8586426 C103.506918,30.0472828 103.547119,30.2467437 103.547119,30.4570312 C103.547119,30.6735037 103.506918,30.8745108 103.426514,31.0600586 C103.34611,31.2456064 103.236329,31.4079583 103.097168,31.5471191 C102.958007,31.68628 102.794109,31.7960608 102.605469,31.8764648 C102.416828,31.9568689 102.217368,31.9970703 102.00708,31.9970703 C101.790608,31.9970703 101.589601,31.9568689 101.404053,31.8764648 C101.218505,31.7960608 101.056153,31.68628 100.916992,31.5471191 C100.777831,31.4079583 100.668051,31.2456064 100.587646,31.0600586 C100.507242,30.8745108 100.467041,30.6735037 100.467041,30.4570312 Z M105.504639,33.0639648 L108.065186,33.0639648 L108.065186,33.9174805 C108.201254,33.7814121 108.354329,33.6499844 108.524414,33.5231934 C108.6945,33.3964024 108.881591,33.2850753 109.085693,33.189209 C109.289796,33.0933426 109.517089,33.0160322 109.767578,32.9572754 C110.018068,32.8985186 110.294839,32.8691406 110.5979,32.8691406 C111.135989,32.8691406 111.618406,32.9572745 112.045166,33.1335449 C112.471926,33.3098153 112.832193,33.5525701 113.125977,33.8618164 C113.419761,34.1710627 113.643961,34.5328755 113.798584,34.9472656 C113.953207,35.3616557 114.030518,35.8100562 114.030518,36.2924805 L114.030518,43 L111.469971,43 L111.469971,37.2202148 C111.469971,36.867674 111.429769,36.5692558 111.349365,36.3249512 C111.268961,36.0806466 111.15918,35.8827319 111.02002,35.7312012 C110.880859,35.5796705 110.716961,35.4683435 110.52832,35.3972168 C110.33968,35.3260901 110.134034,35.2905273 109.911377,35.2905273 C109.65161,35.2905273 109.408855,35.3369136 109.183105,35.4296875 C108.957356,35.5224614 108.760987,35.6631664 108.593994,35.8518066 C108.427001,36.0404469 108.29712,36.2770168 108.204346,36.5615234 C108.111572,36.8460301 108.065186,37.1800111 108.065186,37.5634766 L108.065186,43 L105.504639,43 L105.504639,33.0639648 Z M118.307373,38.9179688 C118.350668,39.2148452 118.444986,39.4869779 118.590332,39.734375 C118.735678,39.9817721 118.919677,40.1936026 119.142334,40.369873 C119.364991,40.5461435 119.621662,40.683756 119.912354,40.7827148 C120.203045,40.8816737 120.512287,40.9311523 120.840088,40.9311523 C121.217368,40.9311523 121.625567,40.8584805 122.064697,40.7131348 C122.503827,40.567789 122.905841,40.3559584 123.270752,40.0776367 L124.504639,41.8774414 C124.040769,42.2670918 123.471764,42.5825183 122.797607,42.8237305 C122.12345,43.0649426 121.40601,43.1855469 120.645264,43.1855469 C119.958737,43.1855469 119.312422,43.068035 118.706299,42.8330078 C118.100176,42.5979806 117.569826,42.2578147 117.115234,41.8125 C116.660642,41.3671853 116.301922,40.8260123 116.039062,40.1889648 C115.776203,39.5519174 115.644775,38.8344766 115.644775,38.0366211 C115.644775,37.3067997 115.760741,36.626468 115.992676,35.9956055 C116.224611,35.3647429 116.549314,34.8173851 116.966797,34.3535156 C117.384279,33.8896461 117.883705,33.5262871 118.465088,33.2634277 C119.046471,33.0005683 119.689694,32.8691406 120.394775,32.8691406 C121.050378,32.8691406 121.659584,32.9881987 122.222412,33.2263184 C122.78524,33.464438 123.273842,33.7984191 123.688232,34.2282715 C124.102623,34.6581239 124.427326,35.1730113 124.662354,35.7729492 C124.897381,36.3728871 125.014893,37.0346644 125.014893,37.7583008 L125.014893,38.9179688 L118.307373,38.9179688 Z M120.385498,35.0957031 C119.83504,35.0957031 119.369631,35.2797019 118.989258,35.6477051 C118.608885,36.0157082 118.387777,36.4594701 118.325928,36.9790039 L122.33374,36.9790039 C122.32137,36.4532851 122.129641,36.0079771 121.758545,35.6430664 C121.387449,35.2781557 120.929772,35.0957031 120.385498,35.0957031 Z M127.352783,39.8271484 C127.717694,40.1549496 128.153725,40.4363595 128.660889,40.6713867 C129.168053,40.9064139 129.681394,41.0239258 130.200928,41.0239258 C130.578208,41.0239258 130.87508,40.951254 131.091553,40.8059082 C131.308025,40.6605624 131.41626,40.4734712 131.41626,40.2446289 C131.41626,39.8549785 130.998783,39.5519217 130.163818,39.3354492 L129.440186,39.140625 C129.08146,39.054036 128.719647,38.934978 128.354736,38.7834473 C127.989826,38.6319166 127.654298,38.4324557 127.348145,38.1850586 C127.041991,37.9376615 126.794597,37.6361509 126.605957,37.2805176 C126.417317,36.9248843 126.322998,36.4873073 126.322998,35.9677734 C126.322998,35.5533833 126.414224,35.1591002 126.59668,34.7849121 C126.779135,34.410724 127.038898,34.0813816 127.375977,33.796875 C127.713055,33.5123684 128.1228,33.2866219 128.605225,33.1196289 C129.087649,32.9526359 129.625729,32.8691406 130.219482,32.8691406 C131.066817,32.8691406 131.822913,33.0021146 132.487793,33.2680664 C133.152673,33.5340183 133.676837,33.8339827 134.060303,34.1679688 L132.724365,35.875 C132.408934,35.6461577 132.036298,35.4497892 131.606445,35.2858887 C131.176593,35.1219881 130.745201,35.0400391 130.312256,35.0400391 C129.910236,35.0400391 129.597902,35.1127109 129.375244,35.2580566 C129.152587,35.4034024 129.04126,35.578124 129.04126,35.7822266 C129.04126,35.998699 129.138671,36.1734206 129.333496,36.3063965 C129.528321,36.4393724 129.811277,36.555338 130.182373,36.6542969 L131.258545,36.9604492 C132.285243,37.2511408 133.021238,37.6438777 133.466553,38.1386719 C133.911867,38.633466 134.134521,39.2581342 134.134521,40.0126953 C134.134521,40.4332703 134.047934,40.8337383 133.874756,41.2141113 C133.701578,41.5944843 133.448,41.933104 133.114014,42.2299805 C132.780028,42.526857 132.365644,42.7603344 131.87085,42.9304199 C131.376055,43.1005054 130.813236,43.1855469 130.182373,43.1855469 C129.699949,43.1855469 129.24691,43.142253 128.823242,43.0556641 C128.399575,42.9690751 128.006838,42.850017 127.64502,42.6984863 C127.283201,42.5469556 126.956951,42.3753265 126.66626,42.1835938 C126.375568,41.991861 126.128175,41.8001312 125.924072,41.6083984 L127.352783,39.8271484 Z M136.490967,39.8271484 C136.855877,40.1549496 137.291908,40.4363595 137.799072,40.6713867 C138.306236,40.9064139 138.819577,41.0239258 139.339111,41.0239258 C139.716392,41.0239258 140.013264,40.951254 140.229736,40.8059082 C140.446209,40.6605624 140.554443,40.4734712 140.554443,40.2446289 C140.554443,39.8549785 140.136967,39.5519217 139.302002,39.3354492 L138.578369,39.140625 C138.219643,39.054036 137.857831,38.934978 137.49292,38.7834473 C137.128009,38.6319166 136.792482,38.4324557 136.486328,38.1850586 C136.180174,37.9376615 135.932781,37.6361509 135.744141,37.2805176 C135.5555,36.9248843 135.461182,36.4873073 135.461182,35.9677734 C135.461182,35.5533833 135.552408,35.1591002 135.734863,34.7849121 C135.917319,34.410724 136.177082,34.0813816 136.51416,33.796875 C136.851239,33.5123684 137.260984,33.2866219 137.743408,33.1196289 C138.225832,32.9526359 138.763913,32.8691406 139.357666,32.8691406 C140.205001,32.8691406 140.961097,33.0021146 141.625977,33.2680664 C142.290856,33.5340183 142.815021,33.8339827 143.198486,34.1679688 L141.862549,35.875 C141.547118,35.6461577 141.174481,35.4497892 140.744629,35.2858887 C140.314776,35.1219881 139.883384,35.0400391 139.450439,35.0400391 C139.048419,35.0400391 138.736085,35.1127109 138.513428,35.2580566 C138.29077,35.4034024 138.179443,35.578124 138.179443,35.7822266 C138.179443,35.998699 138.276854,36.1734206 138.47168,36.3063965 C138.666505,36.4393724 138.949461,36.555338 139.320557,36.6542969 L140.396729,36.9604492 C141.423426,37.2511408 142.159422,37.6438777 142.604736,38.1386719 C143.050051,38.633466 143.272705,39.2581342 143.272705,40.0126953 C143.272705,40.4332703 143.186117,40.8337383 143.012939,41.2141113 C142.839762,41.5944843 142.586183,41.933104 142.252197,42.2299805 C141.918211,42.526857 141.503827,42.7603344 141.009033,42.9304199 C140.514239,43.1005054 139.951419,43.1855469 139.320557,43.1855469 C138.838132,43.1855469 138.385093,43.142253 137.961426,43.0556641 C137.537758,42.9690751 137.145021,42.850017 136.783203,42.6984863 C136.421385,42.5469556 136.095135,42.3753265 135.804443,42.1835938 C135.513752,41.991861 135.266358,41.8001312 135.062256,41.6083984 L136.490967,39.8271484 Z" fill="#2E358B"></path>
        </g>
        <g id="Two-lines-rectangle" transform="translate(560.000000, 175.000000)">
            <path d="M1.5,1.5 L1.5,98.5 L198.5,98.5 L198.5,1.5 L1.5,1.5 Z" id="Rectangle" stroke="#0B0C0C" stroke-width="3" fill="#FFFFFF" fill-rule="nonzero"></path>
            <path d="M15.25,33.796875 L15.25,45 L12.9296875,45 L12.9296875,37.59375 L10.8984375,37.59375 L10.8984375,35.546875 L11.3984375,35.546875 C11.7317725,35.546875 12.0039052,35.5169274 12.2148438,35.4570312 C12.4257823,35.3971351 12.5911452,35.3046881 12.7109375,35.1796875 C12.8307298,35.0546869 12.9114581,34.8945322 12.953125,34.6992188 C12.9947919,34.5039053 13.015625,34.2682305 13.015625,33.9921875 L13.015625,33.796875 L15.25,33.796875 Z M25.2890625,40.8203125 C25.2890625,41.4401073 25.1979176,42.0156223 25.015625,42.546875 C24.8333324,43.0781277 24.5781266,43.5364564 24.25,43.921875 C23.9218734,44.3072936 23.5286481,44.6093739 23.0703125,44.828125 C22.6119769,45.0468761 22.1067736,45.15625 21.5546875,45.15625 C21.3098946,45.15625 21.0872406,45.1341148 20.8867188,45.0898438 C20.6861969,45.0455727 20.502605,44.9843754 20.3359375,44.90625 C20.16927,44.8281246 20.0156257,44.7356776 19.875,44.6289062 C19.7343743,44.5221349 19.6067714,44.4062506 19.4921875,44.28125 L19.4921875,45 L17.3359375,45 L17.3359375,33.796875 L19.4921875,33.796875 L19.4921875,37.3515625 C19.7265637,37.1067696 20.0156233,36.8984384 20.359375,36.7265625 C20.7031267,36.5546866 21.1197892,36.46875 21.609375,36.46875 C22.1614611,36.46875 22.6627582,36.579426 23.1132812,36.8007812 C23.5638043,37.0221365 23.9505192,37.326821 24.2734375,37.7148438 C24.5963558,38.1028665 24.8463533,38.5624973 25.0234375,39.09375 C25.2005217,39.6250027 25.2890625,40.2005177 25.2890625,40.8203125 Z M19.4296875,41.59375 C19.4296875,41.8177095 19.4700517,42.0247386 19.5507812,42.2148438 C19.6315108,42.4049489 19.7473951,42.5703118 19.8984375,42.7109375 C20.0494799,42.8515632 20.2304677,42.9609371 20.4414062,43.0390625 C20.6523448,43.1171879 20.8906237,43.15625 21.15625,43.15625 C21.4635432,43.15625 21.7356759,43.100261 21.9726562,42.9882812 C22.2096366,42.8763015 22.4088534,42.718751 22.5703125,42.515625 C22.7317716,42.312499 22.8541662,42.071616 22.9375,41.7929688 C23.0208338,41.5143215 23.0625,41.208335 23.0625,40.875 L23.0625,40.7734375 C23.0625,40.4401025 23.0208338,40.1328139 22.9375,39.8515625 C22.8541662,39.5703111 22.7317716,39.3268239 22.5703125,39.1210938 C22.4088534,38.9153636 22.2096366,38.7552089 21.9726562,38.640625 C21.7356759,38.5260411 21.4635432,38.46875 21.15625,38.46875 C20.8906237,38.46875 20.6523448,38.5078121 20.4414062,38.5859375 C20.2304677,38.6640629 20.0494799,38.7734368 19.8984375,38.9140625 C19.7473951,39.0546882 19.6315108,39.2213532 19.5507812,39.4140625 C19.4700517,39.6067718 19.4296875,39.815103 19.4296875,40.0390625 L19.4296875,41.59375 Z M26.5625,43.734375 C26.5625,43.5416657 26.60026,43.3606779 26.6757812,43.1914062 C26.7513025,43.0221346 26.854166,42.8736986 26.984375,42.7460938 C27.114584,42.6184889 27.2669262,42.5169275 27.4414062,42.4414062 C27.6158863,42.365885 27.7994782,42.328125 27.9921875,42.328125 C28.1848968,42.328125 28.3671866,42.365885 28.5390625,42.4414062 C28.7109384,42.5169275 28.8619785,42.6184889 28.9921875,42.7460938 C29.1223965,42.8736986 29.22526,43.0221346 29.3007812,43.1914062 C29.3763025,43.3606779 29.4140625,43.5416657 29.4140625,43.734375 C29.4140625,43.9322927 29.3763025,44.1171866 29.3007812,44.2890625 C29.22526,44.4609384 29.1223965,44.6119785 28.9921875,44.7421875 C28.8619785,44.8723965 28.7109384,44.973958 28.5390625,45.046875 C28.3671866,45.119792 28.1848968,45.15625 27.9921875,45.15625 C27.7994782,45.15625 27.6158863,45.119792 27.4414062,45.046875 C27.2669262,44.973958 27.114584,44.8723965 26.984375,44.7421875 C26.854166,44.6119785 26.7513025,44.4609384 26.6757812,44.2890625 C26.60026,44.1171866 26.5625,43.9322927 26.5625,43.734375 Z M39.21875,33.796875 C39.6875023,33.796875 40.1223938,33.8658847 40.5234375,34.0039062 C40.9244812,34.1419278 41.273436,34.3385404 41.5703125,34.59375 C41.867189,34.8489596 42.0989575,35.1575503 42.265625,35.5195312 C42.4322925,35.8815122 42.515625,36.283852 42.515625,36.7265625 C42.515625,36.9557303 42.4830732,37.1822905 42.4179688,37.40625 C42.3528643,37.6302095 42.2578131,37.8398428 42.1328125,38.0351562 C42.0078119,38.2304697 41.8567717,38.4088534 41.6796875,38.5703125 C41.5026033,38.7317716 41.3020845,38.8645828 41.078125,38.96875 C41.2604176,39.0312503 41.472655,39.1249994 41.7148438,39.25 C41.9570325,39.3750006 42.1874989,39.5468739 42.40625,39.765625 C42.6250011,39.9843761 42.8098951,40.2539046 42.9609375,40.5742188 C43.1119799,40.8945329 43.1875,41.2812477 43.1875,41.734375 C43.1875,42.3020862 43.0794282,42.7916646 42.8632812,43.203125 C42.6471343,43.6145854 42.3554706,43.9531237 41.9882812,44.21875 C41.6210919,44.4843763 41.1914087,44.6809889 40.6992188,44.8085938 C40.2070288,44.9361986 39.6875027,45 39.140625,45 L34.234375,45 L34.234375,33.796875 L39.21875,33.796875 Z M40.8671875,41.65625 C40.8671875,41.3541652 40.8125005,41.1067718 40.703125,40.9140625 C40.5937495,40.7213532 40.4492196,40.5677089 40.2695312,40.453125 C40.0898429,40.3385411 39.8854178,40.2591148 39.65625,40.2148438 C39.4270822,40.1705727 39.1927095,40.1484375 38.953125,40.1484375 L36.5,40.1484375 L36.5,43.2109375 L38.953125,43.2109375 C39.1927095,43.2109375 39.4270822,43.1875002 39.65625,43.140625 C39.8854178,43.0937498 40.0898429,43.0104173 40.2695312,42.890625 C40.4492196,42.7708327 40.5937495,42.6119802 40.703125,42.4140625 C40.8125005,42.2161448 40.8671875,41.9635432 40.8671875,41.65625 Z M40.234375,36.953125 C40.234375,36.5260395 40.0989597,36.1927095 39.828125,35.953125 C39.5572903,35.7135405 39.1197947,35.59375 38.515625,35.59375 L36.5,35.59375 L36.5,38.234375 L38.515625,38.234375 C39.109378,38.234375 39.5442695,38.1210949 39.8203125,37.8945312 C40.0963555,37.6679676 40.234375,37.3541687 40.234375,36.953125 Z M51.765625,45 L49.609375,45 L49.609375,44.28125 C49.4895827,44.3958339 49.3593757,44.5065099 49.21875,44.6132812 C49.0781243,44.7200526 48.9218759,44.8138017 48.75,44.8945312 C48.5781241,44.9752608 48.3867198,45.0390623 48.1757812,45.0859375 C47.9648427,45.1328127 47.7317721,45.15625 47.4765625,45.15625 C47.0234352,45.15625 46.6171893,45.082032 46.2578125,44.9335938 C45.8984357,44.7851555 45.5950533,44.5820325 45.3476562,44.3242188 C45.1002592,44.066405 44.911459,43.7630226 44.78125,43.4140625 C44.651041,43.0651024 44.5859375,42.687502 44.5859375,42.28125 L44.5859375,36.6328125 L46.7421875,36.6328125 L46.7421875,41.4921875 C46.7421875,41.789064 46.7747393,42.0416656 46.8398438,42.25 C46.9049482,42.4583344 46.9960932,42.6263014 47.1132812,42.7539062 C47.2304693,42.8815111 47.3697909,42.9752601 47.53125,43.0351562 C47.6927091,43.0950524 47.8671866,43.125 48.0546875,43.125 C48.2734386,43.125 48.4778636,43.0859379 48.6679688,43.0078125 C48.8580739,42.9296871 49.0234368,42.8111987 49.1640625,42.6523438 C49.3046882,42.4934888 49.4140621,42.294272 49.4921875,42.0546875 C49.5703129,41.815103 49.609375,41.5338558 49.609375,41.2109375 L49.609375,36.6328125 L51.765625,36.6328125 L51.765625,45 Z M54.21875,42.328125 C54.5260432,42.604168 54.893227,42.8411448 55.3203125,43.0390625 C55.747398,43.2369802 56.1796853,43.3359375 56.6171875,43.3359375 C56.9348974,43.3359375 57.1848949,43.2747402 57.3671875,43.1523438 C57.5494801,43.0299473 57.640625,42.8723968 57.640625,42.6796875 C57.640625,42.3515609 57.289066,42.0963551 56.5859375,41.9140625 L55.9765625,41.75 C55.6744777,41.677083 55.3697932,41.5768236 55.0625,41.4492188 C54.7552068,41.3216139 54.4726575,41.1536469 54.2148438,40.9453125 C53.95703,40.7369781 53.7486987,40.4830744 53.5898438,40.1835938 C53.4309888,39.8841131 53.3515625,39.5156272 53.3515625,39.078125 C53.3515625,38.7291649 53.4283846,38.397137 53.5820312,38.0820312 C53.7356779,37.7669255 53.9544257,37.4895845 54.2382812,37.25 C54.5221368,37.0104155 54.8671855,36.8203132 55.2734375,36.6796875 C55.6796895,36.5390618 56.13281,36.46875 56.6328125,36.46875 C57.3463577,36.46875 57.9830701,36.580728 58.5429688,36.8046875 C59.1028674,37.028647 59.5442692,37.2812486 59.8671875,37.5625 L58.7421875,39 C58.4765612,38.8072907 58.1627622,38.6419278 57.8007812,38.5039062 C57.4388003,38.3658847 57.0755227,38.296875 56.7109375,38.296875 C56.3723941,38.296875 56.1093759,38.3580723 55.921875,38.4804688 C55.7343741,38.6028652 55.640625,38.7499991 55.640625,38.921875 C55.640625,39.1041676 55.7226554,39.2513015 55.8867188,39.3632812 C56.0507821,39.475261 56.2890609,39.5729162 56.6015625,39.65625 L57.5078125,39.9140625 C58.3724002,40.1588554 58.9921856,40.4895813 59.3671875,40.90625 C59.7421894,41.3229187 59.9296875,41.8489552 59.9296875,42.484375 C59.9296875,42.8385434 59.8567716,43.1757796 59.7109375,43.4960938 C59.5651034,43.8164079 59.3515639,44.1015613 59.0703125,44.3515625 C58.7890611,44.6015637 58.4401062,44.7981764 58.0234375,44.9414062 C57.6067688,45.0846361 57.1328152,45.15625 56.6015625,45.15625 C56.1953105,45.15625 55.8138039,45.119792 55.4570312,45.046875 C55.1002586,44.973958 54.7695328,44.8736986 54.4648438,44.7460938 C54.1601547,44.6184889 53.8854179,44.4739591 53.640625,44.3125 C53.3958321,44.1510409 53.1875009,43.9895841 53.015625,43.828125 L54.21875,42.328125 Z M63.4765625,45 L61.3203125,45 L61.3203125,36.6328125 L63.4765625,36.6328125 L63.4765625,45 Z M61.09375,34.4375 C61.09375,34.2604158 61.1276038,34.0924487 61.1953125,33.9335938 C61.2630212,33.7747388 61.3554682,33.6367193 61.4726562,33.5195312 C61.5898443,33.4023432 61.7265617,33.3098962 61.8828125,33.2421875 C62.0390633,33.1744788 62.2083324,33.140625 62.390625,33.140625 C62.5677092,33.140625 62.7356763,33.1744788 62.8945312,33.2421875 C63.0533862,33.3098962 63.1914057,33.4023432 63.3085938,33.5195312 C63.4257818,33.6367193 63.5182288,33.7747388 63.5859375,33.9335938 C63.6536462,34.0924487 63.6875,34.2604158 63.6875,34.4375 C63.6875,34.6197926 63.6536462,34.7890617 63.5859375,34.9453125 C63.5182288,35.1015633 63.4257818,35.2382807 63.3085938,35.3554688 C63.1914057,35.4726568 63.0533862,35.5651038 62.8945312,35.6328125 C62.7356763,35.7005212 62.5677092,35.734375 62.390625,35.734375 C62.2083324,35.734375 62.0390633,35.7005212 61.8828125,35.6328125 C61.7265617,35.5651038 61.5898443,35.4726568 61.4726562,35.3554688 C61.3554682,35.2382807 61.2630212,35.1015633 61.1953125,34.9453125 C61.1276038,34.7890617 61.09375,34.6197926 61.09375,34.4375 Z M65.3359375,36.6328125 L67.4921875,36.6328125 L67.4921875,37.3515625 C67.6067714,37.2369786 67.7356764,37.1263026 67.8789062,37.0195312 C68.0221361,36.9127599 68.1796866,36.8190108 68.3515625,36.7382812 C68.5234384,36.6575517 68.7148427,36.5924482 68.9257812,36.5429688 C69.1367198,36.4934893 69.3697904,36.46875 69.625,36.46875 C70.0781273,36.46875 70.4843732,36.542968 70.84375,36.6914062 C71.2031268,36.8398445 71.5065092,37.0442695 71.7539062,37.3046875 C72.0013033,37.5651055 72.1901035,37.8697899 72.3203125,38.21875 C72.4505215,38.5677101 72.515625,38.9453105 72.515625,39.3515625 L72.515625,45 L70.359375,45 L70.359375,40.1328125 C70.359375,39.835936 70.3255212,39.5846364 70.2578125,39.3789062 C70.1901038,39.1731761 70.0976568,39.0065111 69.9804688,38.8789062 C69.8632807,38.7513014 69.7252612,38.6575524 69.5664062,38.5976562 C69.4075513,38.5377601 69.2343759,38.5078125 69.046875,38.5078125 C68.8281239,38.5078125 68.6236989,38.5468746 68.4335938,38.625 C68.2434886,38.7031254 68.0781257,38.8216138 67.9375,38.9804688 C67.7968743,39.1393237 67.6875004,39.3385405 67.609375,39.578125 C67.5312496,39.8177095 67.4921875,40.0989567 67.4921875,40.421875 L67.4921875,45 L65.3359375,45 L65.3359375,36.6328125 Z M76.1171875,41.5625 C76.153646,41.8125012 76.2330723,42.0416656 76.3554688,42.25 C76.4778652,42.4583344 76.6328116,42.636718 76.8203125,42.7851562 C77.0078134,42.9335945 77.2239571,43.0494787 77.46875,43.1328125 C77.7135429,43.2161463 77.973957,43.2578125 78.25,43.2578125 C78.5677099,43.2578125 78.9114565,43.1966152 79.28125,43.0742188 C79.6510435,42.9518223 79.9895818,42.7734387 80.296875,42.5390625 L81.3359375,44.0546875 C80.9453105,44.3828141 80.4661487,44.6484365 79.8984375,44.8515625 C79.3307263,45.0546885 78.7265657,45.15625 78.0859375,45.15625 C77.5078096,45.15625 76.9635442,45.0572927 76.453125,44.859375 C75.9427058,44.6614573 75.4960957,44.3750019 75.1132812,44 C74.7304668,43.6249981 74.4283865,43.1692735 74.2070312,42.6328125 C73.985676,42.0963515 73.875,41.4921909 73.875,40.8203125 C73.875,40.2057261 73.9726553,39.6328152 74.1679688,39.1015625 C74.3632822,38.5703098 74.636717,38.109377 74.9882812,37.71875 C75.3398455,37.328123 75.7604142,37.0221365 76.25,36.8007812 C76.7395858,36.579426 77.281247,36.46875 77.875,36.46875 C78.4270861,36.46875 78.9401018,36.5690094 79.4140625,36.7695312 C79.8880232,36.9700531 80.2994774,37.2513003 80.6484375,37.6132812 C80.9973976,37.9752622 81.2708323,38.4088516 81.46875,38.9140625 C81.6666677,39.4192734 81.765625,39.9765595 81.765625,40.5859375 L81.765625,41.5625 L76.1171875,41.5625 Z M77.8671875,38.34375 C77.4036435,38.34375 77.0117204,38.4986964 76.6914062,38.8085938 C76.3710921,39.1184911 76.1848961,39.4921853 76.1328125,39.9296875 L79.5078125,39.9296875 C79.4973958,39.486977 79.3359391,39.1119807 79.0234375,38.8046875 C78.7109359,38.4973943 78.3255231,38.34375 77.8671875,38.34375 Z M83.734375,42.328125 C84.0416682,42.604168 84.408852,42.8411448 84.8359375,43.0390625 C85.263023,43.2369802 85.6953103,43.3359375 86.1328125,43.3359375 C86.4505224,43.3359375 86.7005199,43.2747402 86.8828125,43.1523438 C87.0651051,43.0299473 87.15625,42.8723968 87.15625,42.6796875 C87.15625,42.3515609 86.804691,42.0963551 86.1015625,41.9140625 L85.4921875,41.75 C85.1901027,41.677083 84.8854182,41.5768236 84.578125,41.4492188 C84.2708318,41.3216139 83.9882825,41.1536469 83.7304688,40.9453125 C83.472655,40.7369781 83.2643237,40.4830744 83.1054688,40.1835938 C82.9466138,39.8841131 82.8671875,39.5156272 82.8671875,39.078125 C82.8671875,38.7291649 82.9440096,38.397137 83.0976562,38.0820312 C83.2513029,37.7669255 83.4700507,37.4895845 83.7539062,37.25 C84.0377618,37.0104155 84.3828105,36.8203132 84.7890625,36.6796875 C85.1953145,36.5390618 85.648435,36.46875 86.1484375,36.46875 C86.8619827,36.46875 87.4986951,36.580728 88.0585938,36.8046875 C88.6184924,37.028647 89.0598942,37.2812486 89.3828125,37.5625 L88.2578125,39 C87.9921862,38.8072907 87.6783872,38.6419278 87.3164062,38.5039062 C86.9544253,38.3658847 86.5911477,38.296875 86.2265625,38.296875 C85.8880191,38.296875 85.6250009,38.3580723 85.4375,38.4804688 C85.2499991,38.6028652 85.15625,38.7499991 85.15625,38.921875 C85.15625,39.1041676 85.2382804,39.2513015 85.4023438,39.3632812 C85.5664071,39.475261 85.8046859,39.5729162 86.1171875,39.65625 L87.0234375,39.9140625 C87.8880252,40.1588554 88.5078106,40.4895813 88.8828125,40.90625 C89.2578144,41.3229187 89.4453125,41.8489552 89.4453125,42.484375 C89.4453125,42.8385434 89.3723966,43.1757796 89.2265625,43.4960938 C89.0807284,43.8164079 88.8671889,44.1015613 88.5859375,44.3515625 C88.3046861,44.6015637 87.9557312,44.7981764 87.5390625,44.9414062 C87.1223938,45.0846361 86.6484402,45.15625 86.1171875,45.15625 C85.7109355,45.15625 85.3294289,45.119792 84.9726562,45.046875 C84.6158836,44.973958 84.2851578,44.8736986 83.9804688,44.7460938 C83.6757797,44.6184889 83.4010429,44.4739591 83.15625,44.3125 C82.9114571,44.1510409 82.7031259,43.9895841 82.53125,43.828125 L83.734375,42.328125 Z M91.4296875,42.328125 C91.7369807,42.604168 92.1041645,42.8411448 92.53125,43.0390625 C92.9583355,43.2369802 93.3906228,43.3359375 93.828125,43.3359375 C94.1458349,43.3359375 94.3958324,43.2747402 94.578125,43.1523438 C94.7604176,43.0299473 94.8515625,42.8723968 94.8515625,42.6796875 C94.8515625,42.3515609 94.5000035,42.0963551 93.796875,41.9140625 L93.1875,41.75 C92.8854152,41.677083 92.5807307,41.5768236 92.2734375,41.4492188 C91.9661443,41.3216139 91.683595,41.1536469 91.4257812,40.9453125 C91.1679675,40.7369781 90.9596362,40.4830744 90.8007812,40.1835938 C90.6419263,39.8841131 90.5625,39.5156272 90.5625,39.078125 C90.5625,38.7291649 90.6393221,38.397137 90.7929688,38.0820312 C90.9466154,37.7669255 91.1653632,37.4895845 91.4492188,37.25 C91.7330743,37.0104155 92.078123,36.8203132 92.484375,36.6796875 C92.890627,36.5390618 93.3437475,36.46875 93.84375,36.46875 C94.5572952,36.46875 95.1940076,36.580728 95.7539062,36.8046875 C96.3138049,37.028647 96.7552067,37.2812486 97.078125,37.5625 L95.953125,39 C95.6874987,38.8072907 95.3736997,38.6419278 95.0117188,38.5039062 C94.6497378,38.3658847 94.2864602,38.296875 93.921875,38.296875 C93.5833316,38.296875 93.3203134,38.3580723 93.1328125,38.4804688 C92.9453116,38.6028652 92.8515625,38.7499991 92.8515625,38.921875 C92.8515625,39.1041676 92.9335929,39.2513015 93.0976562,39.3632812 C93.2617196,39.475261 93.4999984,39.5729162 93.8125,39.65625 L94.71875,39.9140625 C95.5833377,40.1588554 96.2031231,40.4895813 96.578125,40.90625 C96.9531269,41.3229187 97.140625,41.8489552 97.140625,42.484375 C97.140625,42.8385434 97.0677091,43.1757796 96.921875,43.4960938 C96.7760409,43.8164079 96.5625014,44.1015613 96.28125,44.3515625 C95.9999986,44.6015637 95.6510437,44.7981764 95.234375,44.9414062 C94.8177063,45.0846361 94.3437527,45.15625 93.8125,45.15625 C93.406248,45.15625 93.0247414,45.119792 92.6679688,45.046875 C92.3111961,44.973958 91.9804703,44.8736986 91.6757812,44.7460938 C91.3710922,44.6184889 91.0963554,44.4739591 90.8515625,44.3125 C90.6067696,44.1510409 90.3984384,43.9895841 90.2265625,43.828125 L91.4296875,42.328125 Z M105.09375,36.46875 C105.713545,36.46875 106.276039,36.579426 106.78125,36.8007812 C107.286461,37.0221365 107.718748,37.328123 108.078125,37.71875 C108.437502,38.109377 108.714843,38.5703098 108.910156,39.1015625 C109.10547,39.6328152 109.203125,40.2057261 109.203125,40.8203125 C109.203125,41.4401073 109.104168,42.0143203 108.90625,42.5429688 C108.708332,43.0716172 108.429689,43.5286439 108.070312,43.9140625 C107.710936,44.2994811 107.278648,44.6028635 106.773438,44.8242188 C106.268227,45.045574 105.708336,45.15625 105.09375,45.15625 C104.473955,45.15625 103.911461,45.045574 103.40625,44.8242188 C102.901039,44.6028635 102.468752,44.2994811 102.109375,43.9140625 C101.749998,43.5286439 101.471355,43.0716172 101.273438,42.5429688 C101.07552,42.0143203 100.976562,41.4401073 100.976562,40.8203125 C100.976562,40.2057261 101.074218,39.6328152 101.269531,39.1015625 C101.464845,38.5703098 101.742186,38.109377 102.101562,37.71875 C102.460939,37.328123 102.894529,37.0221365 103.402344,36.8007812 C103.910159,36.579426 104.473955,36.46875 105.09375,36.46875 Z M105.09375,43.15625 C105.401043,43.15625 105.673176,43.0989589 105.910156,42.984375 C106.147137,42.8697911 106.346353,42.7109385 106.507812,42.5078125 C106.669272,42.3046865 106.791666,42.0611993 106.875,41.7773438 C106.958334,41.4934882 107,41.1822934 107,40.84375 L107,40.7890625 C107,40.4505191 106.958334,40.1393243 106.875,39.8554688 C106.791666,39.5716132 106.669272,39.3268239 106.507812,39.1210938 C106.346353,38.9153636 106.147137,38.7552089 105.910156,38.640625 C105.673176,38.5260411 105.401043,38.46875 105.09375,38.46875 C104.786457,38.46875 104.514324,38.5260411 104.277344,38.640625 C104.040363,38.7552089 103.841147,38.9153636 103.679688,39.1210938 C103.518228,39.3268239 103.395834,39.5716132 103.3125,39.8554688 C103.229166,40.1393243 103.1875,40.4505191 103.1875,40.7890625 L103.1875,40.84375 C103.1875,41.1822934 103.229166,41.4934882 103.3125,41.7773438 C103.395834,42.0611993 103.518228,42.3046865 103.679688,42.5078125 C103.841147,42.7109385 104.040363,42.8697911 104.277344,42.984375 C104.514324,43.0989589 104.786457,43.15625 105.09375,43.15625 Z M112.789062,47.640625 L110.632812,47.640625 L110.632812,36.6328125 L112.789062,36.6328125 L112.789062,37.3515625 C113.023439,37.1067696 113.312498,36.8984384 113.65625,36.7265625 C114.000002,36.5546866 114.416664,36.46875 114.90625,36.46875 C115.458336,36.46875 115.959633,36.579426 116.410156,36.8007812 C116.860679,37.0221365 117.247394,37.326821 117.570312,37.7148438 C117.893231,38.1028665 118.143228,38.5624973 118.320312,39.09375 C118.497397,39.6250027 118.585938,40.2005177 118.585938,40.8203125 C118.585938,41.4401073 118.494793,42.0156223 118.3125,42.546875 C118.130207,43.0781277 117.875002,43.5364564 117.546875,43.921875 C117.218748,44.3072936 116.825523,44.6093739 116.367188,44.828125 C115.908852,45.0468761 115.403649,45.15625 114.851562,45.15625 C114.60677,45.15625 114.384116,45.1341148 114.183594,45.0898438 C113.983072,45.0455727 113.79948,44.9843754 113.632812,44.90625 C113.466145,44.8281246 113.312501,44.7356776 113.171875,44.6289062 C113.031249,44.5221349 112.903646,44.4062506 112.789062,44.28125 L112.789062,47.640625 Z M112.726562,41.59375 C112.726562,41.8177095 112.766927,42.0247386 112.847656,42.2148438 C112.928386,42.4049489 113.04427,42.5703118 113.195312,42.7109375 C113.346355,42.8515632 113.527343,42.9609371 113.738281,43.0390625 C113.94922,43.1171879 114.187499,43.15625 114.453125,43.15625 C114.760418,43.15625 115.032551,43.100261 115.269531,42.9882812 C115.506512,42.8763015 115.705728,42.718751 115.867188,42.515625 C116.028647,42.312499 116.151041,42.071616 116.234375,41.7929688 C116.317709,41.5143215 116.359375,41.208335 116.359375,40.875 L116.359375,40.7734375 C116.359375,40.4401025 116.317709,40.1328139 116.234375,39.8515625 C116.151041,39.5703111 116.028647,39.3268239 115.867188,39.1210938 C115.705728,38.9153636 115.506512,38.7552089 115.269531,38.640625 C115.032551,38.5260411 114.760418,38.46875 114.453125,38.46875 C114.187499,38.46875 113.94922,38.5078121 113.738281,38.5859375 C113.527343,38.6640629 113.346355,38.7734368 113.195312,38.9140625 C113.04427,39.0546882 112.928386,39.2213532 112.847656,39.4140625 C112.766927,39.6067718 112.726562,39.815103 112.726562,40.0390625 L112.726562,41.59375 Z M123.109375,42.5078125 C123.109375,42.6067713 123.122396,42.7005204 123.148438,42.7890625 C123.174479,42.8776046 123.220052,42.9544268 123.285156,43.0195312 C123.350261,43.0846357 123.442708,43.1354165 123.5625,43.171875 C123.682292,43.2083335 123.835937,43.2265625 124.023438,43.2265625 C124.101563,43.2265625 124.190104,43.2226563 124.289062,43.2148438 C124.388021,43.2070312 124.486979,43.1979167 124.585938,43.1875 C124.684896,43.1770833 124.777343,43.1640626 124.863281,43.1484375 L125.078125,43.109375 L125.273438,45.015625 C125.070311,45.0416668 124.859376,45.0651041 124.640625,45.0859375 C124.453124,45.1067709 124.244793,45.1236979 124.015625,45.1367188 C123.786457,45.1497396 123.554689,45.15625 123.320312,45.15625 C122.575517,45.15625 121.994794,44.9869809 121.578125,44.6484375 C121.161456,44.3098941 120.953125,43.770837 120.953125,43.03125 L120.953125,38.5078125 L119.445312,38.5078125 L119.445312,36.6328125 L120.953125,36.6328125 L120.953125,34.265625 L123.109375,33.6875 L123.109375,36.6328125 L125.304688,36.6328125 L125.304688,38.5078125 L123.109375,38.5078125 L123.109375,42.5078125 Z M128.46875,41.5625 C128.505209,41.8125012 128.584635,42.0416656 128.707031,42.25 C128.829428,42.4583344 128.984374,42.636718 129.171875,42.7851562 C129.359376,42.9335945 129.57552,43.0494787 129.820312,43.1328125 C130.065105,43.2161463 130.325519,43.2578125 130.601562,43.2578125 C130.919272,43.2578125 131.263019,43.1966152 131.632812,43.0742188 C132.002606,42.9518223 132.341144,42.7734387 132.648438,42.5390625 L133.6875,44.0546875 C133.296873,44.3828141 132.817711,44.6484365 132.25,44.8515625 C131.682289,45.0546885 131.078128,45.15625 130.4375,45.15625 C129.859372,45.15625 129.315107,45.0572927 128.804688,44.859375 C128.294268,44.6614573 127.847658,44.3750019 127.464844,44 C127.082029,43.6249981 126.779949,43.1692735 126.558594,42.6328125 C126.337238,42.0963515 126.226562,41.4921909 126.226562,40.8203125 C126.226562,40.2057261 126.324218,39.6328152 126.519531,39.1015625 C126.714845,38.5703098 126.988279,38.109377 127.339844,37.71875 C127.691408,37.328123 128.111977,37.0221365 128.601562,36.8007812 C129.091148,36.579426 129.63281,36.46875 130.226562,36.46875 C130.778649,36.46875 131.291664,36.5690094 131.765625,36.7695312 C132.239586,36.9700531 132.65104,37.2513003 133,37.6132812 C133.34896,37.9752622 133.622395,38.4088516 133.820312,38.9140625 C134.01823,39.4192734 134.117188,39.9765595 134.117188,40.5859375 L134.117188,41.5625 L128.46875,41.5625 Z M130.21875,38.34375 C129.755206,38.34375 129.363283,38.4986964 129.042969,38.8085938 C128.722655,39.1184911 128.536459,39.4921853 128.484375,39.9296875 L131.859375,39.9296875 C131.848958,39.486977 131.687502,39.1119807 131.375,38.8046875 C131.062498,38.4973943 130.677086,38.34375 130.21875,38.34375 Z M140.867188,45 L140.867188,44.28125 C140.752604,44.4062506 140.626303,44.5221349 140.488281,44.6289062 C140.35026,44.7356776 140.196615,44.8281246 140.027344,44.90625 C139.858072,44.9843754 139.673178,45.0455727 139.472656,45.0898438 C139.272134,45.1341148 139.04948,45.15625 138.804688,45.15625 C138.252601,45.15625 137.747398,45.0468761 137.289062,44.828125 C136.830727,44.6093739 136.437502,44.3072936 136.109375,43.921875 C135.781248,43.5364564 135.527345,43.0781277 135.347656,42.546875 C135.167968,42.0156223 135.078125,41.4401073 135.078125,40.8203125 C135.078125,40.2005177 135.166666,39.6250027 135.34375,39.09375 C135.520834,38.5624973 135.76953,38.1028665 136.089844,37.7148438 C136.410158,37.326821 136.796873,37.0221365 137.25,36.8007812 C137.703127,36.579426 138.205726,36.46875 138.757812,36.46875 C139.247398,36.46875 139.662759,36.5533846 140.003906,36.7226562 C140.345054,36.8919279 140.632811,37.1015612 140.867188,37.3515625 L140.867188,33.796875 L143.023438,33.796875 L143.023438,45 L140.867188,45 Z M140.929688,40.0390625 C140.929688,39.815103 140.889323,39.6067718 140.808594,39.4140625 C140.727864,39.2213532 140.61198,39.0546882 140.460938,38.9140625 C140.309895,38.7734368 140.128907,38.6640629 139.917969,38.5859375 C139.70703,38.5078121 139.468751,38.46875 139.203125,38.46875 C138.895832,38.46875 138.623699,38.5260411 138.386719,38.640625 C138.149738,38.7552089 137.950522,38.9153636 137.789062,39.1210938 C137.627603,39.3268239 137.505209,39.5703111 137.421875,39.8515625 C137.338541,40.1328139 137.296875,40.4401025 137.296875,40.7734375 L137.296875,40.875 C137.296875,41.208335 137.338541,41.5143215 137.421875,41.7929688 C137.505209,42.071616 137.627603,42.312499 137.789062,42.515625 C137.950522,42.718751 138.149738,42.8763015 138.386719,42.9882812 C138.623699,43.100261 138.895832,43.15625 139.203125,43.15625 C139.468751,43.15625 139.70703,43.1171879 139.917969,43.0390625 C140.128907,42.9609371 140.309895,42.8515632 140.460938,42.7109375 C140.61198,42.5703118 140.727864,42.4049489 140.808594,42.2148438 C140.889323,42.0247386 140.929688,41.8177095 140.929688,41.59375 L140.929688,40.0390625 Z M151.445312,36.46875 C152.065107,36.46875 152.627602,36.579426 153.132812,36.8007812 C153.638023,37.0221365 154.070311,37.328123 154.429688,37.71875 C154.789064,38.109377 155.066405,38.5703098 155.261719,39.1015625 C155.457032,39.6328152 155.554688,40.2057261 155.554688,40.8203125 C155.554688,41.4401073 155.45573,42.0143203 155.257812,42.5429688 C155.059895,43.0716172 154.781252,43.5286439 154.421875,43.9140625 C154.062498,44.2994811 153.630211,44.6028635 153.125,44.8242188 C152.619789,45.045574 152.059899,45.15625 151.445312,45.15625 C150.825518,45.15625 150.263023,45.045574 149.757812,44.8242188 C149.252602,44.6028635 148.820314,44.2994811 148.460938,43.9140625 C148.101561,43.5286439 147.822918,43.0716172 147.625,42.5429688 C147.427082,42.0143203 147.328125,41.4401073 147.328125,40.8203125 C147.328125,40.2057261 147.42578,39.6328152 147.621094,39.1015625 C147.816407,38.5703098 148.093748,38.109377 148.453125,37.71875 C148.812502,37.328123 149.246091,37.0221365 149.753906,36.8007812 C150.261721,36.579426 150.825518,36.46875 151.445312,36.46875 Z M151.445312,43.15625 C151.752606,43.15625 152.024738,43.0989589 152.261719,42.984375 C152.498699,42.8697911 152.697916,42.7109385 152.859375,42.5078125 C153.020834,42.3046865 153.143229,42.0611993 153.226562,41.7773438 C153.309896,41.4934882 153.351562,41.1822934 153.351562,40.84375 L153.351562,40.7890625 C153.351562,40.4505191 153.309896,40.1393243 153.226562,39.8554688 C153.143229,39.5716132 153.020834,39.3268239 152.859375,39.1210938 C152.697916,38.9153636 152.498699,38.7552089 152.261719,38.640625 C152.024738,38.5260411 151.752606,38.46875 151.445312,38.46875 C151.138019,38.46875 150.865887,38.5260411 150.628906,38.640625 C150.391926,38.7552089 150.192709,38.9153636 150.03125,39.1210938 C149.869791,39.3268239 149.747396,39.5716132 149.664062,39.8554688 C149.580729,40.1393243 149.539062,40.4505191 149.539062,40.7890625 L149.539062,40.84375 C149.539062,41.1822934 149.580729,41.4934882 149.664062,41.7773438 C149.747396,42.0611993 149.869791,42.3046865 150.03125,42.5078125 C150.192709,42.7109385 150.391926,42.8697911 150.628906,42.984375 C150.865887,43.0989589 151.138019,43.15625 151.445312,43.15625 Z M164.101562,45 L161.945312,45 L161.945312,44.28125 C161.82552,44.3958339 161.695313,44.5065099 161.554688,44.6132812 C161.414062,44.7200526 161.257813,44.8138017 161.085938,44.8945312 C160.914062,44.9752608 160.722657,45.0390623 160.511719,45.0859375 C160.30078,45.1328127 160.06771,45.15625 159.8125,45.15625 C159.359373,45.15625 158.953127,45.082032 158.59375,44.9335938 C158.234373,44.7851555 157.930991,44.5820325 157.683594,44.3242188 C157.436197,44.066405 157.247396,43.7630226 157.117188,43.4140625 C156.986979,43.0651024 156.921875,42.687502 156.921875,42.28125 L156.921875,36.6328125 L159.078125,36.6328125 L159.078125,41.4921875 C159.078125,41.789064 159.110677,42.0416656 159.175781,42.25 C159.240886,42.4583344 159.332031,42.6263014 159.449219,42.7539062 C159.566407,42.8815111 159.705728,42.9752601 159.867188,43.0351562 C160.028647,43.0950524 160.203124,43.125 160.390625,43.125 C160.609376,43.125 160.813801,43.0859379 161.003906,43.0078125 C161.194011,42.9296871 161.359374,42.8111987 161.5,42.6523438 C161.640626,42.4934888 161.75,42.294272 161.828125,42.0546875 C161.90625,41.815103 161.945312,41.5338558 161.945312,41.2109375 L161.945312,36.6328125 L164.101562,36.6328125 L164.101562,45 Z M169.046875,42.5078125 C169.046875,42.6067713 169.059896,42.7005204 169.085938,42.7890625 C169.111979,42.8776046 169.157552,42.9544268 169.222656,43.0195312 C169.287761,43.0846357 169.380208,43.1354165 169.5,43.171875 C169.619792,43.2083335 169.773437,43.2265625 169.960938,43.2265625 C170.039063,43.2265625 170.127604,43.2226563 170.226562,43.2148438 C170.325521,43.2070312 170.424479,43.1979167 170.523438,43.1875 C170.622396,43.1770833 170.714843,43.1640626 170.800781,43.1484375 L171.015625,43.109375 L171.210938,45.015625 C171.007811,45.0416668 170.796876,45.0651041 170.578125,45.0859375 C170.390624,45.1067709 170.182293,45.1236979 169.953125,45.1367188 C169.723957,45.1497396 169.492189,45.15625 169.257812,45.15625 C168.513017,45.15625 167.932294,44.9869809 167.515625,44.6484375 C167.098956,44.3098941 166.890625,43.770837 166.890625,43.03125 L166.890625,38.5078125 L165.382812,38.5078125 L165.382812,36.6328125 L166.890625,36.6328125 L166.890625,34.265625 L169.046875,33.6875 L169.046875,36.6328125 L171.242188,36.6328125 L171.242188,38.5078125 L169.046875,38.5078125 L169.046875,42.5078125 Z M179.164062,36.46875 C179.783857,36.46875 180.346352,36.579426 180.851562,36.8007812 C181.356773,37.0221365 181.789061,37.328123 182.148438,37.71875 C182.507814,38.109377 182.785155,38.5703098 182.980469,39.1015625 C183.175782,39.6328152 183.273438,40.2057261 183.273438,40.8203125 C183.273438,41.4401073 183.17448,42.0143203 182.976562,42.5429688 C182.778645,43.0716172 182.500002,43.5286439 182.140625,43.9140625 C181.781248,44.2994811 181.348961,44.6028635 180.84375,44.8242188 C180.338539,45.045574 179.778649,45.15625 179.164062,45.15625 C178.544268,45.15625 177.981773,45.045574 177.476562,44.8242188 C176.971352,44.6028635 176.539064,44.2994811 176.179688,43.9140625 C175.820311,43.5286439 175.541668,43.0716172 175.34375,42.5429688 C175.145832,42.0143203 175.046875,41.4401073 175.046875,40.8203125 C175.046875,40.2057261 175.14453,39.6328152 175.339844,39.1015625 C175.535157,38.5703098 175.812498,38.109377 176.171875,37.71875 C176.531252,37.328123 176.964841,37.0221365 177.472656,36.8007812 C177.980471,36.579426 178.544268,36.46875 179.164062,36.46875 Z M179.164062,43.15625 C179.471356,43.15625 179.743488,43.0989589 179.980469,42.984375 C180.217449,42.8697911 180.416666,42.7109385 180.578125,42.5078125 C180.739584,42.3046865 180.861979,42.0611993 180.945312,41.7773438 C181.028646,41.4934882 181.070312,41.1822934 181.070312,40.84375 L181.070312,40.7890625 C181.070312,40.4505191 181.028646,40.1393243 180.945312,39.8554688 C180.861979,39.5716132 180.739584,39.3268239 180.578125,39.1210938 C180.416666,38.9153636 180.217449,38.7552089 179.980469,38.640625 C179.743488,38.5260411 179.471356,38.46875 179.164062,38.46875 C178.856769,38.46875 178.584637,38.5260411 178.347656,38.640625 C178.110676,38.7552089 177.911459,38.9153636 177.75,39.1210938 C177.588541,39.3268239 177.466146,39.5716132 177.382812,39.8554688 C177.299479,40.1393243 177.257812,40.4505191 177.257812,40.7890625 L177.257812,40.84375 C177.257812,41.1822934 177.299479,41.4934882 177.382812,41.7773438 C177.466146,42.0611993 177.588541,42.3046865 177.75,42.5078125 C177.911459,42.7109385 178.110676,42.8697911 178.347656,42.984375 C178.584637,43.0989589 178.856769,43.15625 179.164062,43.15625 Z M187.59375,36.6328125 L189.195312,36.6328125 L189.195312,38.5078125 L187.59375,38.5078125 L187.59375,45 L185.4375,45 L185.4375,38.5078125 L184.109375,38.5078125 L184.109375,36.6328125 L185.4375,36.6328125 L185.4375,35.609375 C185.4375,35.2447898 185.499999,34.9283868 185.625,34.6601562 C185.750001,34.3919257 185.923176,34.1705738 186.144531,33.9960938 C186.365887,33.8216137 186.631509,33.6914067 186.941406,33.6054688 C187.251304,33.5195308 187.593748,33.4765625 187.96875,33.4765625 C188.156251,33.4765625 188.338541,33.4817708 188.515625,33.4921875 C188.692709,33.5026042 188.85677,33.5130208 189.007812,33.5234375 C189.158855,33.5338542 189.292968,33.5468749 189.410156,33.5625 C189.527344,33.5781251 189.617187,33.5885416 189.679688,33.59375 L189.5,35.4296875 C189.4375,35.4192708 189.360678,35.4088542 189.269531,35.3984375 C189.178385,35.3880208 189.083334,35.3789063 188.984375,35.3710938 C188.885416,35.3632812 188.789063,35.3580729 188.695312,35.3554688 C188.601562,35.3528646 188.51823,35.3515625 188.445312,35.3515625 C188.138019,35.3515625 187.919271,35.4101557 187.789062,35.5273438 C187.658854,35.6445318 187.59375,35.7942699 187.59375,35.9765625 L187.59375,36.6328125 Z M65.0273438,65 L61.8632812,53.796875 L64.4023438,53.796875 L66.5664062,62.21875 L66.6445312,62.21875 L68.7617188,53.796875 L71.2695312,53.796875 L68.1054688,65 L65.0273438,65 Z M78.2929688,62.921875 L74.1445312,62.921875 L73.5117188,65 L71.1054688,65 L74.7695312,53.796875 L77.7460938,53.796875 L81.4648438,65 L78.9335938,65 L78.2929688,62.921875 Z M74.7539062,60.921875 L77.6835938,60.921875 L76.2304688,56.1875 L76.1992188,56.1875 L74.7539062,60.921875 Z M81.0664062,53.796875 L89.6054688,53.796875 L89.6054688,55.8984375 L86.4726562,55.8984375 L86.4726562,65 L84.1992188,65 L84.1992188,55.8984375 L81.0664062,55.8984375 L81.0664062,53.796875 Z M95.1289062,60.7578125 C95.1289062,61.4401076 95.216145,62.0846324 95.390625,62.6914062 C95.565105,63.2981801 95.8033839,63.8645807 96.1054688,64.390625 C96.4075536,64.9166693 96.7630188,65.4062477 97.171875,65.859375 C97.5807312,66.3125023 98.0169248,66.7291648 98.4804688,67.109375 L97.1289062,68.453125 L96.5273438,67.9765625 C95.9335908,67.4921851 95.4023461,66.9778673 94.9335938,66.4335938 C94.4648414,65.8893202 94.06771,65.3151072 93.7421875,64.7109375 C93.416665,64.1067678 93.1692717,63.4713575 93,62.8046875 C92.8307283,62.1380175 92.7460938,61.4401078 92.7460938,60.7109375 C92.7460938,59.9765588 92.8307283,59.2773471 93,58.6132812 C93.1692717,57.9492154 93.416665,57.3164093 93.7421875,56.7148438 C94.06771,56.1132782 94.4648414,55.5416694 94.9335938,55 C95.4023461,54.4583306 95.9335908,53.9453149 96.5273438,53.4609375 L97.1289062,52.96875 L98.4804688,54.328125 C98.0169248,54.7031269 97.5807312,55.1158832 97.171875,55.5664062 C96.7630188,56.0169293 96.4075536,56.5065078 96.1054688,57.0351562 C95.8033839,57.5638047 95.565105,58.1302053 95.390625,58.734375 C95.216145,59.3385447 95.1289062,59.9817674 95.1289062,60.6640625 L95.1289062,60.7578125 Z M105.386719,61.3828125 L102.074219,57.2421875 L102.074219,65 L99.8085938,65 L99.8085938,53.796875 L102.105469,53.796875 L105.417969,58.171875 L108.832031,53.796875 L111.035156,53.796875 L111.035156,65 L108.761719,65 L108.761719,57.2421875 L105.464844,61.3828125 L105.386719,61.3828125 Z M112.449219,53.796875 L120.988281,53.796875 L120.988281,55.8984375 L117.855469,55.8984375 L117.855469,65 L115.582031,65 L115.582031,55.8984375 L112.449219,55.8984375 L112.449219,53.796875 Z M131.949219,59.3984375 C131.949219,60.2369834 131.835939,61.0012986 131.609375,61.6914062 C131.382811,62.3815139 131.044273,62.9713517 130.59375,63.4609375 C130.143227,63.9505233 129.57943,64.3294257 128.902344,64.5976562 C128.225257,64.8658868 127.433598,65 126.527344,65 L122.402344,65 L122.402344,53.796875 L126.527344,53.796875 C127.433598,53.796875 128.225257,53.9309882 128.902344,54.1992188 C129.57943,54.4674493 130.143227,54.8463517 130.59375,55.3359375 C131.044273,55.8255233 131.382811,56.4153611 131.609375,57.1054688 C131.835939,57.7955764 131.949219,58.5598916 131.949219,59.3984375 Z M129.597656,59.1796875 C129.597656,58.7057268 129.539063,58.264325 129.421875,57.8554688 C129.304687,57.4466125 129.117189,57.0911473 128.859375,56.7890625 C128.601561,56.4869777 128.266929,56.2486988 127.855469,56.0742188 C127.444008,55.8997387 126.946618,55.8125 126.363281,55.8125 L124.667969,55.8125 L124.667969,62.984375 L126.363281,62.984375 C126.941409,62.984375 127.436196,62.8971363 127.847656,62.7226562 C128.259117,62.5481762 128.593749,62.3085953 128.851562,62.0039062 C129.109376,61.6992172 129.298176,61.3411479 129.417969,60.9296875 C129.537761,60.5182271 129.597656,60.0781273 129.597656,59.609375 L129.597656,59.1796875 Z M135.582031,60.6640625 C135.582031,59.9817674 135.494793,59.3385447 135.320312,58.734375 C135.145832,58.1302053 134.907554,57.5638047 134.605469,57.0351562 C134.303384,56.5065078 133.947919,56.0169293 133.539062,55.5664062 C133.130206,55.1158832 132.694013,54.7031269 132.230469,54.328125 L133.582031,52.96875 L134.183594,53.4609375 C134.777347,53.9453149 135.308591,54.4583306 135.777344,55 C136.246096,55.5416694 136.643228,56.1132782 136.96875,56.7148438 C137.294272,57.3164093 137.541666,57.9492154 137.710938,58.6132812 C137.880209,59.2773471 137.964844,59.9765588 137.964844,60.7109375 C137.964844,61.4401078 137.880209,62.1380175 137.710938,62.8046875 C137.541666,63.4713575 137.294272,64.1067678 136.96875,64.7109375 C136.643228,65.3151072 136.246096,65.8893202 135.777344,66.4335938 C135.308591,66.9778673 134.777347,67.4921851 134.183594,67.9765625 L133.582031,68.453125 L132.230469,67.109375 C132.694013,66.7291648 133.130206,66.3125023 133.539062,65.859375 C133.947919,65.4062477 134.303384,64.9166693 134.605469,64.390625 C134.907554,63.8645807 135.145832,63.2981801 135.320312,62.6914062 C135.494793,62.0846324 135.582031,61.4401076 135.582031,60.7578125 L135.582031,60.6640625 Z" fill="#000000"></path>
        </g>
        <g id="Two-lines-rectangle" transform="translate(20.000000, 175.000000)">
            <path d="M1.5,1.5 L1.5,98.5 L198.5,98.5 L198.5,1.5 L1.5,1.5 Z" id="Rectangle" stroke="#0B0C0C" stroke-width="3" fill="#FFFFFF" fill-rule="nonzero"></path>
            <path d="M21.078125,33.796875 L21.078125,45 L18.7578125,45 L18.7578125,37.59375 L16.7265625,37.59375 L16.7265625,35.546875 L17.2265625,35.546875 C17.5598975,35.546875 17.8320302,35.5169274 18.0429688,35.4570312 C18.2539073,35.3971351 18.4192702,35.3046881 18.5390625,35.1796875 C18.6588548,35.0546869 18.7395831,34.8945322 18.78125,34.6992188 C18.8229169,34.5039053 18.84375,34.2682305 18.84375,33.9921875 L18.84375,33.796875 L21.078125,33.796875 Z M25.8671875,41.6015625 C25.6015612,41.6432294 25.3880216,41.7356764 25.2265625,41.8789062 C25.0651034,42.0221361 24.984375,42.2161446 24.984375,42.4609375 C24.984375,42.7317722 25.0833323,42.9648428 25.28125,43.1601562 C25.4791677,43.3554697 25.7708314,43.453125 26.15625,43.453125 C26.562502,43.453125 26.8828113,43.3359387 27.1171875,43.1015625 C27.3515637,42.8671863 27.46875,42.5572936 27.46875,42.171875 L27.46875,41.328125 L25.8671875,41.6015625 Z M27.8203125,44.2109375 C27.7317704,44.3098963 27.6236986,44.415364 27.4960938,44.5273438 C27.3684889,44.6393235 27.2174488,44.740885 27.0429688,44.8320312 C26.8684887,44.9231775 26.6640637,44.9999997 26.4296875,45.0625 C26.1953113,45.1250003 25.9322931,45.15625 25.640625,45.15625 C25.2239563,45.15625 24.8398455,45.0898444 24.4882812,44.9570312 C24.136717,44.8242181 23.8281263,44.638022 23.5625,44.3984375 C23.2968737,44.158853 23.0885424,43.881512 22.9375,43.5664062 C22.7864576,43.2513005 22.7109375,42.908856 22.7109375,42.5390625 C22.7109375,41.8671841 22.9192688,41.3177105 23.3359375,40.890625 C23.7526062,40.4635395 24.3281213,40.195313 25.0625,40.0859375 L27.46875,39.734375 L27.46875,39.578125 C27.46875,39.2031231 27.3541678,38.9062511 27.125,38.6875 C26.8958322,38.4687489 26.5234401,38.359375 26.0078125,38.359375 C25.7942698,38.359375 25.5781261,38.3841143 25.359375,38.4335938 C25.1406239,38.4830732 24.9309906,38.5390622 24.7304688,38.6015625 C24.5299469,38.6640628 24.3437509,38.7356767 24.171875,38.8164062 C23.9999991,38.8971358 23.848959,38.9687497 23.71875,39.03125 L22.875,37.3828125 C23.3541691,37.1171862 23.8867158,36.8984384 24.4726562,36.7265625 C25.0585967,36.5546866 25.6666635,36.46875 26.296875,36.46875 C26.6822936,36.46875 27.0716126,36.5091142 27.4648438,36.5898438 C27.8580749,36.6705733 28.2148421,36.8177073 28.5351562,37.03125 C28.8554704,37.2447927 29.1171865,37.5351544 29.3203125,37.9023438 C29.5234385,38.2695331 29.625,38.7369763 29.625,39.3046875 L29.625,42.7421875 C29.625,42.9869804 29.6888014,43.1679682 29.8164062,43.2851562 C29.9440111,43.4023443 30.1197905,43.5104162 30.34375,43.609375 L29.3671875,45.15625 C28.9713522,45.1145831 28.653647,45.0117196 28.4140625,44.8476562 C28.174478,44.6835929 27.9765633,44.4713555 27.8203125,44.2109375 Z M31.2578125,43.734375 C31.2578125,43.5416657 31.2955725,43.3606779 31.3710938,43.1914062 C31.446615,43.0221346 31.5494785,42.8736986 31.6796875,42.7460938 C31.8098965,42.6184889 31.9622387,42.5169275 32.1367188,42.4414062 C32.3111988,42.365885 32.4947907,42.328125 32.6875,42.328125 C32.8802093,42.328125 33.0624991,42.365885 33.234375,42.4414062 C33.4062509,42.5169275 33.557291,42.6184889 33.6875,42.7460938 C33.817709,42.8736986 33.9205725,43.0221346 33.9960938,43.1914062 C34.071615,43.3606779 34.109375,43.5416657 34.109375,43.734375 C34.109375,43.9322927 34.071615,44.1171866 33.9960938,44.2890625 C33.9205725,44.4609384 33.817709,44.6119785 33.6875,44.7421875 C33.557291,44.8723965 33.4062509,44.973958 33.234375,45.046875 C33.0624991,45.119792 32.8802093,45.15625 32.6875,45.15625 C32.4947907,45.15625 32.3111988,45.119792 32.1367188,45.046875 C31.9622387,44.973958 31.8098965,44.8723965 31.6796875,44.7421875 C31.5494785,44.6119785 31.446615,44.4609384 31.3710938,44.2890625 C31.2955725,44.1171866 31.2578125,43.9322927 31.2578125,43.734375 Z M43.9140625,33.796875 C44.3828148,33.796875 44.8177063,33.8658847 45.21875,34.0039062 C45.6197937,34.1419278 45.9687485,34.3385404 46.265625,34.59375 C46.5625015,34.8489596 46.79427,35.1575503 46.9609375,35.5195312 C47.127605,35.8815122 47.2109375,36.283852 47.2109375,36.7265625 C47.2109375,36.9557303 47.1783857,37.1822905 47.1132812,37.40625 C47.0481768,37.6302095 46.9531256,37.8398428 46.828125,38.0351562 C46.7031244,38.2304697 46.5520842,38.4088534 46.375,38.5703125 C46.1979158,38.7317716 45.997397,38.8645828 45.7734375,38.96875 C45.9557301,39.0312503 46.1679675,39.1249994 46.4101562,39.25 C46.652345,39.3750006 46.8828114,39.5468739 47.1015625,39.765625 C47.3203136,39.9843761 47.5052076,40.2539046 47.65625,40.5742188 C47.8072924,40.8945329 47.8828125,41.2812477 47.8828125,41.734375 C47.8828125,42.3020862 47.7747407,42.7916646 47.5585938,43.203125 C47.3424468,43.6145854 47.0507831,43.9531237 46.6835938,44.21875 C46.3164044,44.4843763 45.8867212,44.6809889 45.3945312,44.8085938 C44.9023413,44.9361986 44.3828152,45 43.8359375,45 L38.9296875,45 L38.9296875,33.796875 L43.9140625,33.796875 Z M45.5625,41.65625 C45.5625,41.3541652 45.507813,41.1067718 45.3984375,40.9140625 C45.289062,40.7213532 45.1445321,40.5677089 44.9648438,40.453125 C44.7851554,40.3385411 44.5807303,40.2591148 44.3515625,40.2148438 C44.1223947,40.1705727 43.888022,40.1484375 43.6484375,40.1484375 L41.1953125,40.1484375 L41.1953125,43.2109375 L43.6484375,43.2109375 C43.888022,43.2109375 44.1223947,43.1875002 44.3515625,43.140625 C44.5807303,43.0937498 44.7851554,43.0104173 44.9648438,42.890625 C45.1445321,42.7708327 45.289062,42.6119802 45.3984375,42.4140625 C45.507813,42.2161448 45.5625,41.9635432 45.5625,41.65625 Z M44.9296875,36.953125 C44.9296875,36.5260395 44.7942722,36.1927095 44.5234375,35.953125 C44.2526028,35.7135405 43.8151072,35.59375 43.2109375,35.59375 L41.1953125,35.59375 L41.1953125,38.234375 L43.2109375,38.234375 C43.8046905,38.234375 44.239582,38.1210949 44.515625,37.8945312 C44.791668,37.6679676 44.9296875,37.3541687 44.9296875,36.953125 Z M56.4609375,45 L54.3046875,45 L54.3046875,44.28125 C54.1848952,44.3958339 54.0546882,44.5065099 53.9140625,44.6132812 C53.7734368,44.7200526 53.6171884,44.8138017 53.4453125,44.8945312 C53.2734366,44.9752608 53.0820323,45.0390623 52.8710938,45.0859375 C52.6601552,45.1328127 52.4270846,45.15625 52.171875,45.15625 C51.7187477,45.15625 51.3125018,45.082032 50.953125,44.9335938 C50.5937482,44.7851555 50.2903658,44.5820325 50.0429688,44.3242188 C49.7955717,44.066405 49.6067715,43.7630226 49.4765625,43.4140625 C49.3463535,43.0651024 49.28125,42.687502 49.28125,42.28125 L49.28125,36.6328125 L51.4375,36.6328125 L51.4375,41.4921875 C51.4375,41.789064 51.4700518,42.0416656 51.5351562,42.25 C51.6002607,42.4583344 51.6914057,42.6263014 51.8085938,42.7539062 C51.9257818,42.8815111 52.0651034,42.9752601 52.2265625,43.0351562 C52.3880216,43.0950524 52.5624991,43.125 52.75,43.125 C52.9687511,43.125 53.1731761,43.0859379 53.3632812,43.0078125 C53.5533864,42.9296871 53.7187493,42.8111987 53.859375,42.6523438 C54.0000007,42.4934888 54.1093746,42.294272 54.1875,42.0546875 C54.2656254,41.815103 54.3046875,41.5338558 54.3046875,41.2109375 L54.3046875,36.6328125 L56.4609375,36.6328125 L56.4609375,45 Z M58.9140625,42.328125 C59.2213557,42.604168 59.5885395,42.8411448 60.015625,43.0390625 C60.4427105,43.2369802 60.8749978,43.3359375 61.3125,43.3359375 C61.6302099,43.3359375 61.8802074,43.2747402 62.0625,43.1523438 C62.2447926,43.0299473 62.3359375,42.8723968 62.3359375,42.6796875 C62.3359375,42.3515609 61.9843785,42.0963551 61.28125,41.9140625 L60.671875,41.75 C60.3697902,41.677083 60.0651057,41.5768236 59.7578125,41.4492188 C59.4505193,41.3216139 59.16797,41.1536469 58.9101562,40.9453125 C58.6523425,40.7369781 58.4440112,40.4830744 58.2851562,40.1835938 C58.1263013,39.8841131 58.046875,39.5156272 58.046875,39.078125 C58.046875,38.7291649 58.1236971,38.397137 58.2773438,38.0820312 C58.4309904,37.7669255 58.6497382,37.4895845 58.9335938,37.25 C59.2174493,37.0104155 59.562498,36.8203132 59.96875,36.6796875 C60.375002,36.5390618 60.8281225,36.46875 61.328125,36.46875 C62.0416702,36.46875 62.6783826,36.580728 63.2382812,36.8046875 C63.7981799,37.028647 64.2395817,37.2812486 64.5625,37.5625 L63.4375,39 C63.1718737,38.8072907 62.8580747,38.6419278 62.4960938,38.5039062 C62.1341128,38.3658847 61.7708352,38.296875 61.40625,38.296875 C61.0677066,38.296875 60.8046884,38.3580723 60.6171875,38.4804688 C60.4296866,38.6028652 60.3359375,38.7499991 60.3359375,38.921875 C60.3359375,39.1041676 60.4179679,39.2513015 60.5820312,39.3632812 C60.7460946,39.475261 60.9843734,39.5729162 61.296875,39.65625 L62.203125,39.9140625 C63.0677127,40.1588554 63.6874981,40.4895813 64.0625,40.90625 C64.4375019,41.3229187 64.625,41.8489552 64.625,42.484375 C64.625,42.8385434 64.5520841,43.1757796 64.40625,43.4960938 C64.2604159,43.8164079 64.0468764,44.1015613 63.765625,44.3515625 C63.4843736,44.6015637 63.1354187,44.7981764 62.71875,44.9414062 C62.3020813,45.0846361 61.8281277,45.15625 61.296875,45.15625 C60.890623,45.15625 60.5091164,45.119792 60.1523438,45.046875 C59.7955711,44.973958 59.4648453,44.8736986 59.1601562,44.7460938 C58.8554672,44.6184889 58.5807304,44.4739591 58.3359375,44.3125 C58.0911446,44.1510409 57.8828134,43.9895841 57.7109375,43.828125 L58.9140625,42.328125 Z M68.171875,45 L66.015625,45 L66.015625,36.6328125 L68.171875,36.6328125 L68.171875,45 Z M65.7890625,34.4375 C65.7890625,34.2604158 65.8229163,34.0924487 65.890625,33.9335938 C65.9583337,33.7747388 66.0507807,33.6367193 66.1679688,33.5195312 C66.2851568,33.4023432 66.4218742,33.3098962 66.578125,33.2421875 C66.7343758,33.1744788 66.9036449,33.140625 67.0859375,33.140625 C67.2630217,33.140625 67.4309888,33.1744788 67.5898438,33.2421875 C67.7486987,33.3098962 67.8867182,33.4023432 68.0039062,33.5195312 C68.1210943,33.6367193 68.2135413,33.7747388 68.28125,33.9335938 C68.3489587,34.0924487 68.3828125,34.2604158 68.3828125,34.4375 C68.3828125,34.6197926 68.3489587,34.7890617 68.28125,34.9453125 C68.2135413,35.1015633 68.1210943,35.2382807 68.0039062,35.3554688 C67.8867182,35.4726568 67.7486987,35.5651038 67.5898438,35.6328125 C67.4309888,35.7005212 67.2630217,35.734375 67.0859375,35.734375 C66.9036449,35.734375 66.7343758,35.7005212 66.578125,35.6328125 C66.4218742,35.5651038 66.2851568,35.4726568 66.1679688,35.3554688 C66.0507807,35.2382807 65.9583337,35.1015633 65.890625,34.9453125 C65.8229163,34.7890617 65.7890625,34.6197926 65.7890625,34.4375 Z M70.03125,36.6328125 L72.1875,36.6328125 L72.1875,37.3515625 C72.3020839,37.2369786 72.4309889,37.1263026 72.5742188,37.0195312 C72.7174486,36.9127599 72.8749991,36.8190108 73.046875,36.7382812 C73.2187509,36.6575517 73.4101552,36.5924482 73.6210938,36.5429688 C73.8320323,36.4934893 74.0651029,36.46875 74.3203125,36.46875 C74.7734398,36.46875 75.1796857,36.542968 75.5390625,36.6914062 C75.8984393,36.8398445 76.2018217,37.0442695 76.4492188,37.3046875 C76.6966158,37.5651055 76.885416,37.8697899 77.015625,38.21875 C77.145834,38.5677101 77.2109375,38.9453105 77.2109375,39.3515625 L77.2109375,45 L75.0546875,45 L75.0546875,40.1328125 C75.0546875,39.835936 75.0208337,39.5846364 74.953125,39.3789062 C74.8854163,39.1731761 74.7929693,39.0065111 74.6757812,38.8789062 C74.5585932,38.7513014 74.4205737,38.6575524 74.2617188,38.5976562 C74.1028638,38.5377601 73.9296884,38.5078125 73.7421875,38.5078125 C73.5234364,38.5078125 73.3190114,38.5468746 73.1289062,38.625 C72.9388011,38.7031254 72.7734382,38.8216138 72.6328125,38.9804688 C72.4921868,39.1393237 72.3828129,39.3385405 72.3046875,39.578125 C72.2265621,39.8177095 72.1875,40.0989567 72.1875,40.421875 L72.1875,45 L70.03125,45 L70.03125,36.6328125 Z M80.8125,41.5625 C80.8489585,41.8125012 80.9283848,42.0416656 81.0507812,42.25 C81.1731777,42.4583344 81.3281241,42.636718 81.515625,42.7851562 C81.7031259,42.9335945 81.9192696,43.0494787 82.1640625,43.1328125 C82.4088554,43.2161463 82.6692695,43.2578125 82.9453125,43.2578125 C83.2630224,43.2578125 83.606769,43.1966152 83.9765625,43.0742188 C84.346356,42.9518223 84.6848943,42.7734387 84.9921875,42.5390625 L86.03125,44.0546875 C85.640623,44.3828141 85.1614612,44.6484365 84.59375,44.8515625 C84.0260388,45.0546885 83.4218782,45.15625 82.78125,45.15625 C82.2031221,45.15625 81.6588567,45.0572927 81.1484375,44.859375 C80.6380183,44.6614573 80.1914082,44.3750019 79.8085938,44 C79.4257793,43.6249981 79.123699,43.1692735 78.9023438,42.6328125 C78.6809885,42.0963515 78.5703125,41.4921909 78.5703125,40.8203125 C78.5703125,40.2057261 78.6679678,39.6328152 78.8632812,39.1015625 C79.0585947,38.5703098 79.3320295,38.109377 79.6835938,37.71875 C80.035158,37.328123 80.4557267,37.0221365 80.9453125,36.8007812 C81.4348983,36.579426 81.9765595,36.46875 82.5703125,36.46875 C83.1223986,36.46875 83.6354143,36.5690094 84.109375,36.7695312 C84.5833357,36.9700531 84.9947899,37.2513003 85.34375,37.6132812 C85.6927101,37.9752622 85.9661448,38.4088516 86.1640625,38.9140625 C86.3619802,39.4192734 86.4609375,39.9765595 86.4609375,40.5859375 L86.4609375,41.5625 L80.8125,41.5625 Z M82.5625,38.34375 C82.098956,38.34375 81.7070329,38.4986964 81.3867188,38.8085938 C81.0664046,39.1184911 80.8802086,39.4921853 80.828125,39.9296875 L84.203125,39.9296875 C84.1927083,39.486977 84.0312516,39.1119807 83.71875,38.8046875 C83.4062484,38.4973943 83.0208356,38.34375 82.5625,38.34375 Z M88.4296875,42.328125 C88.7369807,42.604168 89.1041645,42.8411448 89.53125,43.0390625 C89.9583355,43.2369802 90.3906228,43.3359375 90.828125,43.3359375 C91.1458349,43.3359375 91.3958324,43.2747402 91.578125,43.1523438 C91.7604176,43.0299473 91.8515625,42.8723968 91.8515625,42.6796875 C91.8515625,42.3515609 91.5000035,42.0963551 90.796875,41.9140625 L90.1875,41.75 C89.8854152,41.677083 89.5807307,41.5768236 89.2734375,41.4492188 C88.9661443,41.3216139 88.683595,41.1536469 88.4257812,40.9453125 C88.1679675,40.7369781 87.9596362,40.4830744 87.8007812,40.1835938 C87.6419263,39.8841131 87.5625,39.5156272 87.5625,39.078125 C87.5625,38.7291649 87.6393221,38.397137 87.7929688,38.0820312 C87.9466154,37.7669255 88.1653632,37.4895845 88.4492188,37.25 C88.7330743,37.0104155 89.078123,36.8203132 89.484375,36.6796875 C89.890627,36.5390618 90.3437475,36.46875 90.84375,36.46875 C91.5572952,36.46875 92.1940076,36.580728 92.7539062,36.8046875 C93.3138049,37.028647 93.7552067,37.2812486 94.078125,37.5625 L92.953125,39 C92.6874987,38.8072907 92.3736997,38.6419278 92.0117188,38.5039062 C91.6497378,38.3658847 91.2864602,38.296875 90.921875,38.296875 C90.5833316,38.296875 90.3203134,38.3580723 90.1328125,38.4804688 C89.9453116,38.6028652 89.8515625,38.7499991 89.8515625,38.921875 C89.8515625,39.1041676 89.9335929,39.2513015 90.0976562,39.3632812 C90.2617196,39.475261 90.4999984,39.5729162 90.8125,39.65625 L91.71875,39.9140625 C92.5833377,40.1588554 93.2031231,40.4895813 93.578125,40.90625 C93.9531269,41.3229187 94.140625,41.8489552 94.140625,42.484375 C94.140625,42.8385434 94.0677091,43.1757796 93.921875,43.4960938 C93.7760409,43.8164079 93.5625014,44.1015613 93.28125,44.3515625 C92.9999986,44.6015637 92.6510437,44.7981764 92.234375,44.9414062 C91.8177063,45.0846361 91.3437527,45.15625 90.8125,45.15625 C90.406248,45.15625 90.0247414,45.119792 89.6679688,45.046875 C89.3111961,44.973958 88.9804703,44.8736986 88.6757812,44.7460938 C88.3710922,44.6184889 88.0963554,44.4739591 87.8515625,44.3125 C87.6067696,44.1510409 87.3984384,43.9895841 87.2265625,43.828125 L88.4296875,42.328125 Z M96.125,42.328125 C96.4322932,42.604168 96.799477,42.8411448 97.2265625,43.0390625 C97.653648,43.2369802 98.0859353,43.3359375 98.5234375,43.3359375 C98.8411474,43.3359375 99.0911449,43.2747402 99.2734375,43.1523438 C99.4557301,43.0299473 99.546875,42.8723968 99.546875,42.6796875 C99.546875,42.3515609 99.195316,42.0963551 98.4921875,41.9140625 L97.8828125,41.75 C97.5807277,41.677083 97.2760432,41.5768236 96.96875,41.4492188 C96.6614568,41.3216139 96.3789075,41.1536469 96.1210938,40.9453125 C95.86328,40.7369781 95.6549487,40.4830744 95.4960938,40.1835938 C95.3372388,39.8841131 95.2578125,39.5156272 95.2578125,39.078125 C95.2578125,38.7291649 95.3346346,38.397137 95.4882812,38.0820312 C95.6419279,37.7669255 95.8606757,37.4895845 96.1445312,37.25 C96.4283868,37.0104155 96.7734355,36.8203132 97.1796875,36.6796875 C97.5859395,36.5390618 98.03906,36.46875 98.5390625,36.46875 C99.2526077,36.46875 99.8893201,36.580728 100.449219,36.8046875 C101.009117,37.028647 101.450519,37.2812486 101.773438,37.5625 L100.648438,39 C100.382811,38.8072907 100.069012,38.6419278 99.7070312,38.5039062 C99.3450503,38.3658847 98.9817727,38.296875 98.6171875,38.296875 C98.2786441,38.296875 98.0156259,38.3580723 97.828125,38.4804688 C97.6406241,38.6028652 97.546875,38.7499991 97.546875,38.921875 C97.546875,39.1041676 97.6289054,39.2513015 97.7929688,39.3632812 C97.9570321,39.475261 98.1953109,39.5729162 98.5078125,39.65625 L99.4140625,39.9140625 C100.27865,40.1588554 100.898436,40.4895813 101.273438,40.90625 C101.648439,41.3229187 101.835938,41.8489552 101.835938,42.484375 C101.835938,42.8385434 101.763022,43.1757796 101.617188,43.4960938 C101.471353,43.8164079 101.257814,44.1015613 100.976562,44.3515625 C100.695311,44.6015637 100.346356,44.7981764 99.9296875,44.9414062 C99.5130188,45.0846361 99.0390652,45.15625 98.5078125,45.15625 C98.1015605,45.15625 97.7200539,45.119792 97.3632812,45.046875 C97.0065086,44.973958 96.6757828,44.8736986 96.3710938,44.7460938 C96.0664047,44.6184889 95.7916679,44.4739591 95.546875,44.3125 C95.3020821,44.1510409 95.0937509,43.9895841 94.921875,43.828125 L96.125,42.328125 Z M109.789062,36.46875 C110.408857,36.46875 110.971352,36.579426 111.476562,36.8007812 C111.981773,37.0221365 112.414061,37.328123 112.773438,37.71875 C113.132814,38.109377 113.410155,38.5703098 113.605469,39.1015625 C113.800782,39.6328152 113.898438,40.2057261 113.898438,40.8203125 C113.898438,41.4401073 113.79948,42.0143203 113.601562,42.5429688 C113.403645,43.0716172 113.125002,43.5286439 112.765625,43.9140625 C112.406248,44.2994811 111.973961,44.6028635 111.46875,44.8242188 C110.963539,45.045574 110.403649,45.15625 109.789062,45.15625 C109.169268,45.15625 108.606773,45.045574 108.101562,44.8242188 C107.596352,44.6028635 107.164064,44.2994811 106.804688,43.9140625 C106.445311,43.5286439 106.166668,43.0716172 105.96875,42.5429688 C105.770832,42.0143203 105.671875,41.4401073 105.671875,40.8203125 C105.671875,40.2057261 105.76953,39.6328152 105.964844,39.1015625 C106.160157,38.5703098 106.437498,38.109377 106.796875,37.71875 C107.156252,37.328123 107.589841,37.0221365 108.097656,36.8007812 C108.605471,36.579426 109.169268,36.46875 109.789062,36.46875 Z M109.789062,43.15625 C110.096356,43.15625 110.368488,43.0989589 110.605469,42.984375 C110.842449,42.8697911 111.041666,42.7109385 111.203125,42.5078125 C111.364584,42.3046865 111.486979,42.0611993 111.570312,41.7773438 C111.653646,41.4934882 111.695312,41.1822934 111.695312,40.84375 L111.695312,40.7890625 C111.695312,40.4505191 111.653646,40.1393243 111.570312,39.8554688 C111.486979,39.5716132 111.364584,39.3268239 111.203125,39.1210938 C111.041666,38.9153636 110.842449,38.7552089 110.605469,38.640625 C110.368488,38.5260411 110.096356,38.46875 109.789062,38.46875 C109.481769,38.46875 109.209637,38.5260411 108.972656,38.640625 C108.735676,38.7552089 108.536459,38.9153636 108.375,39.1210938 C108.213541,39.3268239 108.091146,39.5716132 108.007812,39.8554688 C107.924479,40.1393243 107.882812,40.4505191 107.882812,40.7890625 L107.882812,40.84375 C107.882812,41.1822934 107.924479,41.4934882 108.007812,41.7773438 C108.091146,42.0611993 108.213541,42.3046865 108.375,42.5078125 C108.536459,42.7109385 108.735676,42.8697911 108.972656,42.984375 C109.209637,43.0989589 109.481769,43.15625 109.789062,43.15625 Z M117.484375,47.640625 L115.328125,47.640625 L115.328125,36.6328125 L117.484375,36.6328125 L117.484375,37.3515625 C117.718751,37.1067696 118.007811,36.8984384 118.351562,36.7265625 C118.695314,36.5546866 119.111977,36.46875 119.601562,36.46875 C120.153649,36.46875 120.654946,36.579426 121.105469,36.8007812 C121.555992,37.0221365 121.942707,37.326821 122.265625,37.7148438 C122.588543,38.1028665 122.838541,38.5624973 123.015625,39.09375 C123.192709,39.6250027 123.28125,40.2005177 123.28125,40.8203125 C123.28125,41.4401073 123.190105,42.0156223 123.007812,42.546875 C122.82552,43.0781277 122.570314,43.5364564 122.242188,43.921875 C121.914061,44.3072936 121.520836,44.6093739 121.0625,44.828125 C120.604164,45.0468761 120.098961,45.15625 119.546875,45.15625 C119.302082,45.15625 119.079428,45.1341148 118.878906,45.0898438 C118.678384,45.0455727 118.494793,44.9843754 118.328125,44.90625 C118.161457,44.8281246 118.007813,44.7356776 117.867188,44.6289062 C117.726562,44.5221349 117.598959,44.4062506 117.484375,44.28125 L117.484375,47.640625 Z M117.421875,41.59375 C117.421875,41.8177095 117.462239,42.0247386 117.542969,42.2148438 C117.623698,42.4049489 117.739583,42.5703118 117.890625,42.7109375 C118.041667,42.8515632 118.222655,42.9609371 118.433594,43.0390625 C118.644532,43.1171879 118.882811,43.15625 119.148438,43.15625 C119.455731,43.15625 119.727863,43.100261 119.964844,42.9882812 C120.201824,42.8763015 120.401041,42.718751 120.5625,42.515625 C120.723959,42.312499 120.846354,42.071616 120.929688,41.7929688 C121.013021,41.5143215 121.054688,41.208335 121.054688,40.875 L121.054688,40.7734375 C121.054688,40.4401025 121.013021,40.1328139 120.929688,39.8515625 C120.846354,39.5703111 120.723959,39.3268239 120.5625,39.1210938 C120.401041,38.9153636 120.201824,38.7552089 119.964844,38.640625 C119.727863,38.5260411 119.455731,38.46875 119.148438,38.46875 C118.882811,38.46875 118.644532,38.5078121 118.433594,38.5859375 C118.222655,38.6640629 118.041667,38.7734368 117.890625,38.9140625 C117.739583,39.0546882 117.623698,39.2213532 117.542969,39.4140625 C117.462239,39.6067718 117.421875,39.815103 117.421875,40.0390625 L117.421875,41.59375 Z M127.804688,42.5078125 C127.804688,42.6067713 127.817708,42.7005204 127.84375,42.7890625 C127.869792,42.8776046 127.915364,42.9544268 127.980469,43.0195312 C128.045573,43.0846357 128.13802,43.1354165 128.257812,43.171875 C128.377605,43.2083335 128.531249,43.2265625 128.71875,43.2265625 C128.796875,43.2265625 128.885416,43.2226563 128.984375,43.2148438 C129.083334,43.2070312 129.182291,43.1979167 129.28125,43.1875 C129.380209,43.1770833 129.472656,43.1640626 129.558594,43.1484375 L129.773438,43.109375 L129.96875,45.015625 C129.765624,45.0416668 129.554689,45.0651041 129.335938,45.0859375 C129.148437,45.1067709 128.940105,45.1236979 128.710938,45.1367188 C128.48177,45.1497396 128.250001,45.15625 128.015625,45.15625 C127.27083,45.15625 126.690106,44.9869809 126.273438,44.6484375 C125.856769,44.3098941 125.648438,43.770837 125.648438,43.03125 L125.648438,38.5078125 L124.140625,38.5078125 L124.140625,36.6328125 L125.648438,36.6328125 L125.648438,34.265625 L127.804688,33.6875 L127.804688,36.6328125 L130,36.6328125 L130,38.5078125 L127.804688,38.5078125 L127.804688,42.5078125 Z M131.953125,42.328125 C132.260418,42.604168 132.627602,42.8411448 133.054688,43.0390625 C133.481773,43.2369802 133.91406,43.3359375 134.351562,43.3359375 C134.669272,43.3359375 134.91927,43.2747402 135.101562,43.1523438 C135.283855,43.0299473 135.375,42.8723968 135.375,42.6796875 C135.375,42.3515609 135.023441,42.0963551 134.320312,41.9140625 L133.710938,41.75 C133.408853,41.677083 133.104168,41.5768236 132.796875,41.4492188 C132.489582,41.3216139 132.207033,41.1536469 131.949219,40.9453125 C131.691405,40.7369781 131.483074,40.4830744 131.324219,40.1835938 C131.165364,39.8841131 131.085938,39.5156272 131.085938,39.078125 C131.085938,38.7291649 131.16276,38.397137 131.316406,38.0820312 C131.470053,37.7669255 131.688801,37.4895845 131.972656,37.25 C132.256512,37.0104155 132.60156,36.8203132 133.007812,36.6796875 C133.414065,36.5390618 133.867185,36.46875 134.367188,36.46875 C135.080733,36.46875 135.717445,36.580728 136.277344,36.8046875 C136.837242,37.028647 137.278644,37.2812486 137.601562,37.5625 L136.476562,39 C136.210936,38.8072907 135.897137,38.6419278 135.535156,38.5039062 C135.173175,38.3658847 134.809898,38.296875 134.445312,38.296875 C134.106769,38.296875 133.843751,38.3580723 133.65625,38.4804688 C133.468749,38.6028652 133.375,38.7499991 133.375,38.921875 C133.375,39.1041676 133.45703,39.2513015 133.621094,39.3632812 C133.785157,39.475261 134.023436,39.5729162 134.335938,39.65625 L135.242188,39.9140625 C136.106775,40.1588554 136.726561,40.4895813 137.101562,40.90625 C137.476564,41.3229187 137.664062,41.8489552 137.664062,42.484375 C137.664062,42.8385434 137.591147,43.1757796 137.445312,43.4960938 C137.299478,43.8164079 137.085939,44.1015613 136.804688,44.3515625 C136.523436,44.6015637 136.174481,44.7981764 135.757812,44.9414062 C135.341144,45.0846361 134.86719,45.15625 134.335938,45.15625 C133.929685,45.15625 133.548179,45.119792 133.191406,45.046875 C132.834634,44.973958 132.503908,44.8736986 132.199219,44.7460938 C131.89453,44.6184889 131.619793,44.4739591 131.375,44.3125 C131.130207,44.1510409 130.921876,43.9895841 130.75,43.828125 L131.953125,42.328125 Z M145.617188,36.46875 C146.236982,36.46875 146.799477,36.579426 147.304688,36.8007812 C147.809898,37.0221365 148.242186,37.328123 148.601562,37.71875 C148.960939,38.109377 149.23828,38.5703098 149.433594,39.1015625 C149.628907,39.6328152 149.726562,40.2057261 149.726562,40.8203125 C149.726562,41.4401073 149.627605,42.0143203 149.429688,42.5429688 C149.23177,43.0716172 148.953127,43.5286439 148.59375,43.9140625 C148.234373,44.2994811 147.802086,44.6028635 147.296875,44.8242188 C146.791664,45.045574 146.231774,45.15625 145.617188,45.15625 C144.997393,45.15625 144.434898,45.045574 143.929688,44.8242188 C143.424477,44.6028635 142.992189,44.2994811 142.632812,43.9140625 C142.273436,43.5286439 141.994793,43.0716172 141.796875,42.5429688 C141.598957,42.0143203 141.5,41.4401073 141.5,40.8203125 C141.5,40.2057261 141.597655,39.6328152 141.792969,39.1015625 C141.988282,38.5703098 142.265623,38.109377 142.625,37.71875 C142.984377,37.328123 143.417966,37.0221365 143.925781,36.8007812 C144.433596,36.579426 144.997393,36.46875 145.617188,36.46875 Z M145.617188,43.15625 C145.924481,43.15625 146.196613,43.0989589 146.433594,42.984375 C146.670574,42.8697911 146.869791,42.7109385 147.03125,42.5078125 C147.192709,42.3046865 147.315104,42.0611993 147.398438,41.7773438 C147.481771,41.4934882 147.523438,41.1822934 147.523438,40.84375 L147.523438,40.7890625 C147.523438,40.4505191 147.481771,40.1393243 147.398438,39.8554688 C147.315104,39.5716132 147.192709,39.3268239 147.03125,39.1210938 C146.869791,38.9153636 146.670574,38.7552089 146.433594,38.640625 C146.196613,38.5260411 145.924481,38.46875 145.617188,38.46875 C145.309894,38.46875 145.037762,38.5260411 144.800781,38.640625 C144.563801,38.7552089 144.364584,38.9153636 144.203125,39.1210938 C144.041666,39.3268239 143.919271,39.5716132 143.835938,39.8554688 C143.752604,40.1393243 143.710938,40.4505191 143.710938,40.7890625 L143.710938,40.84375 C143.710938,41.1822934 143.752604,41.4934882 143.835938,41.7773438 C143.919271,42.0611993 144.041666,42.3046865 144.203125,42.5078125 C144.364584,42.7109385 144.563801,42.8697911 144.800781,42.984375 C145.037762,43.0989589 145.309894,43.15625 145.617188,43.15625 Z M158.273438,45 L156.117188,45 L156.117188,44.28125 C155.997395,44.3958339 155.867188,44.5065099 155.726562,44.6132812 C155.585937,44.7200526 155.429688,44.8138017 155.257812,44.8945312 C155.085937,44.9752608 154.894532,45.0390623 154.683594,45.0859375 C154.472655,45.1328127 154.239585,45.15625 153.984375,45.15625 C153.531248,45.15625 153.125002,45.082032 152.765625,44.9335938 C152.406248,44.7851555 152.102866,44.5820325 151.855469,44.3242188 C151.608072,44.066405 151.419271,43.7630226 151.289062,43.4140625 C151.158854,43.0651024 151.09375,42.687502 151.09375,42.28125 L151.09375,36.6328125 L153.25,36.6328125 L153.25,41.4921875 C153.25,41.789064 153.282552,42.0416656 153.347656,42.25 C153.412761,42.4583344 153.503906,42.6263014 153.621094,42.7539062 C153.738282,42.8815111 153.877603,42.9752601 154.039062,43.0351562 C154.200522,43.0950524 154.374999,43.125 154.5625,43.125 C154.781251,43.125 154.985676,43.0859379 155.175781,43.0078125 C155.365886,42.9296871 155.531249,42.8111987 155.671875,42.6523438 C155.812501,42.4934888 155.921875,42.294272 156,42.0546875 C156.078125,41.815103 156.117188,41.5338558 156.117188,41.2109375 L156.117188,36.6328125 L158.273438,36.6328125 L158.273438,45 Z M163.21875,42.5078125 C163.21875,42.6067713 163.231771,42.7005204 163.257812,42.7890625 C163.283854,42.8776046 163.329427,42.9544268 163.394531,43.0195312 C163.459636,43.0846357 163.552083,43.1354165 163.671875,43.171875 C163.791667,43.2083335 163.945312,43.2265625 164.132812,43.2265625 C164.210938,43.2265625 164.299479,43.2226563 164.398438,43.2148438 C164.497396,43.2070312 164.596354,43.1979167 164.695312,43.1875 C164.794271,43.1770833 164.886718,43.1640626 164.972656,43.1484375 L165.1875,43.109375 L165.382812,45.015625 C165.179686,45.0416668 164.968751,45.0651041 164.75,45.0859375 C164.562499,45.1067709 164.354168,45.1236979 164.125,45.1367188 C163.895832,45.1497396 163.664064,45.15625 163.429688,45.15625 C162.684892,45.15625 162.104169,44.9869809 161.6875,44.6484375 C161.270831,44.3098941 161.0625,43.770837 161.0625,43.03125 L161.0625,38.5078125 L159.554688,38.5078125 L159.554688,36.6328125 L161.0625,36.6328125 L161.0625,34.265625 L163.21875,33.6875 L163.21875,36.6328125 L165.414062,36.6328125 L165.414062,38.5078125 L163.21875,38.5078125 L163.21875,42.5078125 Z M173.335938,36.46875 C173.955732,36.46875 174.518227,36.579426 175.023438,36.8007812 C175.528648,37.0221365 175.960936,37.328123 176.320312,37.71875 C176.679689,38.109377 176.95703,38.5703098 177.152344,39.1015625 C177.347657,39.6328152 177.445312,40.2057261 177.445312,40.8203125 C177.445312,41.4401073 177.346355,42.0143203 177.148438,42.5429688 C176.95052,43.0716172 176.671877,43.5286439 176.3125,43.9140625 C175.953123,44.2994811 175.520836,44.6028635 175.015625,44.8242188 C174.510414,45.045574 173.950524,45.15625 173.335938,45.15625 C172.716143,45.15625 172.153648,45.045574 171.648438,44.8242188 C171.143227,44.6028635 170.710939,44.2994811 170.351562,43.9140625 C169.992186,43.5286439 169.713543,43.0716172 169.515625,42.5429688 C169.317707,42.0143203 169.21875,41.4401073 169.21875,40.8203125 C169.21875,40.2057261 169.316405,39.6328152 169.511719,39.1015625 C169.707032,38.5703098 169.984373,38.109377 170.34375,37.71875 C170.703127,37.328123 171.136716,37.0221365 171.644531,36.8007812 C172.152346,36.579426 172.716143,36.46875 173.335938,36.46875 Z M173.335938,43.15625 C173.643231,43.15625 173.915363,43.0989589 174.152344,42.984375 C174.389324,42.8697911 174.588541,42.7109385 174.75,42.5078125 C174.911459,42.3046865 175.033854,42.0611993 175.117188,41.7773438 C175.200521,41.4934882 175.242188,41.1822934 175.242188,40.84375 L175.242188,40.7890625 C175.242188,40.4505191 175.200521,40.1393243 175.117188,39.8554688 C175.033854,39.5716132 174.911459,39.3268239 174.75,39.1210938 C174.588541,38.9153636 174.389324,38.7552089 174.152344,38.640625 C173.915363,38.5260411 173.643231,38.46875 173.335938,38.46875 C173.028644,38.46875 172.756512,38.5260411 172.519531,38.640625 C172.282551,38.7552089 172.083334,38.9153636 171.921875,39.1210938 C171.760416,39.3268239 171.638021,39.5716132 171.554688,39.8554688 C171.471354,40.1393243 171.429688,40.4505191 171.429688,40.7890625 L171.429688,40.84375 C171.429688,41.1822934 171.471354,41.4934882 171.554688,41.7773438 C171.638021,42.0611993 171.760416,42.3046865 171.921875,42.5078125 C172.083334,42.7109385 172.282551,42.8697911 172.519531,42.984375 C172.756512,43.0989589 173.028644,43.15625 173.335938,43.15625 Z M181.765625,36.6328125 L183.367188,36.6328125 L183.367188,38.5078125 L181.765625,38.5078125 L181.765625,45 L179.609375,45 L179.609375,38.5078125 L178.28125,38.5078125 L178.28125,36.6328125 L179.609375,36.6328125 L179.609375,35.609375 C179.609375,35.2447898 179.671874,34.9283868 179.796875,34.6601562 C179.921876,34.3919257 180.095051,34.1705738 180.316406,33.9960938 C180.537762,33.8216137 180.803384,33.6914067 181.113281,33.6054688 C181.423179,33.5195308 181.765623,33.4765625 182.140625,33.4765625 C182.328126,33.4765625 182.510416,33.4817708 182.6875,33.4921875 C182.864584,33.5026042 183.028645,33.5130208 183.179688,33.5234375 C183.33073,33.5338542 183.464843,33.5468749 183.582031,33.5625 C183.699219,33.5781251 183.789062,33.5885416 183.851562,33.59375 L183.671875,35.4296875 C183.609375,35.4192708 183.532553,35.4088542 183.441406,35.3984375 C183.35026,35.3880208 183.255209,35.3789063 183.15625,35.3710938 C183.057291,35.3632812 182.960938,35.3580729 182.867188,35.3554688 C182.773437,35.3528646 182.690105,35.3515625 182.617188,35.3515625 C182.309894,35.3515625 182.091146,35.4101557 181.960938,35.5273438 C181.830729,35.6445318 181.765625,35.7942699 181.765625,35.9765625 L181.765625,36.6328125 Z M65.0273438,65 L61.8632812,53.796875 L64.4023438,53.796875 L66.5664062,62.21875 L66.6445312,62.21875 L68.7617188,53.796875 L71.2695312,53.796875 L68.1054688,65 L65.0273438,65 Z M78.2929688,62.921875 L74.1445312,62.921875 L73.5117188,65 L71.1054688,65 L74.7695312,53.796875 L77.7460938,53.796875 L81.4648438,65 L78.9335938,65 L78.2929688,62.921875 Z M74.7539062,60.921875 L77.6835938,60.921875 L76.2304688,56.1875 L76.1992188,56.1875 L74.7539062,60.921875 Z M81.0664062,53.796875 L89.6054688,53.796875 L89.6054688,55.8984375 L86.4726562,55.8984375 L86.4726562,65 L84.1992188,65 L84.1992188,55.8984375 L81.0664062,55.8984375 L81.0664062,53.796875 Z M95.1289062,60.7578125 C95.1289062,61.4401076 95.216145,62.0846324 95.390625,62.6914062 C95.565105,63.2981801 95.8033839,63.8645807 96.1054688,64.390625 C96.4075536,64.9166693 96.7630188,65.4062477 97.171875,65.859375 C97.5807312,66.3125023 98.0169248,66.7291648 98.4804688,67.109375 L97.1289062,68.453125 L96.5273438,67.9765625 C95.9335908,67.4921851 95.4023461,66.9778673 94.9335938,66.4335938 C94.4648414,65.8893202 94.06771,65.3151072 93.7421875,64.7109375 C93.416665,64.1067678 93.1692717,63.4713575 93,62.8046875 C92.8307283,62.1380175 92.7460938,61.4401078 92.7460938,60.7109375 C92.7460938,59.9765588 92.8307283,59.2773471 93,58.6132812 C93.1692717,57.9492154 93.416665,57.3164093 93.7421875,56.7148438 C94.06771,56.1132782 94.4648414,55.5416694 94.9335938,55 C95.4023461,54.4583306 95.9335908,53.9453149 96.5273438,53.4609375 L97.1289062,52.96875 L98.4804688,54.328125 C98.0169248,54.7031269 97.5807312,55.1158832 97.171875,55.5664062 C96.7630188,56.0169293 96.4075536,56.5065078 96.1054688,57.0351562 C95.8033839,57.5638047 95.565105,58.1302053 95.390625,58.734375 C95.216145,59.3385447 95.1289062,59.9817674 95.1289062,60.6640625 L95.1289062,60.7578125 Z M105.386719,61.3828125 L102.074219,57.2421875 L102.074219,65 L99.8085938,65 L99.8085938,53.796875 L102.105469,53.796875 L105.417969,58.171875 L108.832031,53.796875 L111.035156,53.796875 L111.035156,65 L108.761719,65 L108.761719,57.2421875 L105.464844,61.3828125 L105.386719,61.3828125 Z M112.449219,53.796875 L120.988281,53.796875 L120.988281,55.8984375 L117.855469,55.8984375 L117.855469,65 L115.582031,65 L115.582031,55.8984375 L112.449219,55.8984375 L112.449219,53.796875 Z M131.949219,59.3984375 C131.949219,60.2369834 131.835939,61.0012986 131.609375,61.6914062 C131.382811,62.3815139 131.044273,62.9713517 130.59375,63.4609375 C130.143227,63.9505233 129.57943,64.3294257 128.902344,64.5976562 C128.225257,64.8658868 127.433598,65 126.527344,65 L122.402344,65 L122.402344,53.796875 L126.527344,53.796875 C127.433598,53.796875 128.225257,53.9309882 128.902344,54.1992188 C129.57943,54.4674493 130.143227,54.8463517 130.59375,55.3359375 C131.044273,55.8255233 131.382811,56.4153611 131.609375,57.1054688 C131.835939,57.7955764 131.949219,58.5598916 131.949219,59.3984375 Z M129.597656,59.1796875 C129.597656,58.7057268 129.539063,58.264325 129.421875,57.8554688 C129.304687,57.4466125 129.117189,57.0911473 128.859375,56.7890625 C128.601561,56.4869777 128.266929,56.2486988 127.855469,56.0742188 C127.444008,55.8997387 126.946618,55.8125 126.363281,55.8125 L124.667969,55.8125 L124.667969,62.984375 L126.363281,62.984375 C126.941409,62.984375 127.436196,62.8971363 127.847656,62.7226562 C128.259117,62.5481762 128.593749,62.3085953 128.851562,62.0039062 C129.109376,61.6992172 129.298176,61.3411479 129.417969,60.9296875 C129.537761,60.5182271 129.597656,60.0781273 129.597656,59.609375 L129.597656,59.1796875 Z M135.582031,60.6640625 C135.582031,59.9817674 135.494793,59.3385447 135.320312,58.734375 C135.145832,58.1302053 134.907554,57.5638047 134.605469,57.0351562 C134.303384,56.5065078 133.947919,56.0169293 133.539062,55.5664062 C133.130206,55.1158832 132.694013,54.7031269 132.230469,54.328125 L133.582031,52.96875 L134.183594,53.4609375 C134.777347,53.9453149 135.308591,54.4583306 135.777344,55 C136.246096,55.5416694 136.643228,56.1132782 136.96875,56.7148438 C137.294272,57.3164093 137.541666,57.9492154 137.710938,58.6132812 C137.880209,59.2773471 137.964844,59.9765588 137.964844,60.7109375 C137.964844,61.4401078 137.880209,62.1380175 137.710938,62.8046875 C137.541666,63.4713575 137.294272,64.1067678 136.96875,64.7109375 C136.643228,65.3151072 136.246096,65.8893202 135.777344,66.4335938 C135.308591,66.9778673 134.777347,67.4921851 134.183594,67.9765625 L133.582031,68.453125 L132.230469,67.109375 C132.694013,66.7291648 133.130206,66.3125023 133.539062,65.859375 C133.947919,65.4062477 134.303384,64.9166693 134.605469,64.390625 C134.907554,63.8645807 135.145832,63.2981801 135.320312,62.6914062 C135.494793,62.0846324 135.582031,61.4401076 135.582031,60.7578125 L135.582031,60.6640625 Z" fill="#000000"></path>
        </g>
        <path id="Line-6" d="M541.5,226.5 L220,226.5 L218.5,226.5 L218.5,223.5 L220,223.5 L541.5,223.5 L541.5,215.5 L560.5,225 L541.5,234.5 L541.5,226.5 Z" fill="#0B0C0C" fill-rule="nonzero"></path>
    </g>
</svg>