<?xml version="1.0" encoding="UTF-8" standalone="no"?>
<!-- Created with Inkscape (http://www.inkscape.org/) -->

<svg
   version="1.1"
   id="svg1"
   width="775.8064"
   height="960.45001"
   viewBox="0 0 775.8064 960.45001"
   xmlns="http://www.w3.org/2000/svg"
   xmlns:svg="http://www.w3.org/2000/svg">
  <defs
     id="defs1" />
  <path
     id="path1"
     d="M 279.12436,0 H 536.27575 V 960.45 H 279.12436 Z"
     style="fill:#f8f8f8;stroke-width:0.951672" />
  <path
     id="path2"
     d="M 336.26911,28.528217 H 479.131 V 123.62226 H 336.26911 Z"
     style="fill:#f1f7f5;stroke:#006435;stroke-width:2.85503;stroke-miterlimit:10" />
  <text
     id="text2"
     xml:space="preserve"
     x="351.07523"
     y="70.899887"
     style="font-size:11.4201px;stroke-width:0.951672"><tspan
       id="tspan2"
       style="font-weight:700;font-size:18.0818px;font-family:Arial;fill:#006435"
       x="351.07523"
       y="70.899887">Accountancy</tspan></text>
  <text
     id="text3"
     xml:space="preserve"
     x="369.52786"
     y="92.788437"
     style="font-size:11.4201px;stroke-width:0.951672"><tspan
       id="tspan3"
       style="font-weight:700;font-size:18.0818px;font-family:Arial;fill:#006435"
       x="369.52786"
       y="92.788437">Software</tspan></text>
  <path
     id="path3"
     d="M 598.18257,28.528217 H 741.04444 V 123.62226 H 598.18257 Z"
     style="fill:#f1f7fa;stroke:#005ea5;stroke-width:2.85503;stroke-miterlimit:10" />
  <text
     id="text4"
     xml:space="preserve"
     x="625.17273"
     y="81.368317"
     style="font-size:11.4201px;stroke-width:0.951672"><tspan
       id="tspan4"
       style="font-weight:700;font-size:18.0818px;font-family:Arial;fill:#005ea5"
       x="625.17273"
       dx="0 0 0 0 0 -0.67100626"
       y="81.368317">HMRC API</tspan></text>
  <path
     id="path4"
     d="M 52.920254,142.64108 H 775.80641"
     style="fill:none;stroke:#000000;stroke-width:0.938777;stroke-miterlimit:10" />
  <path
     id="path5"
     d="m 512.46544,232.98044 h 42.76335"
     style="fill:none;stroke:#000000;stroke-width:2.85503;stroke-miterlimit:10" />
  <path
     id="path6"
     d="m 561.65757,232.98044 -8.57172,4.27924 2.14294,-4.27924 -2.14294,-4.27923 z"
     style="fill:#000000;stroke:#000000;stroke-width:2.85503;stroke-miterlimit:10" />
  <text
     id="text20"
     xml:space="preserve"
     x="182.71086"
     y="71.851562"
     style="font-size:11.4201px;stroke-width:0.951672"><tspan
       id="tspan20"
       style="font-weight:700;font-size:18.0818px;font-family:Arial;fill:#2e358b"
       x="182.71086"
       y="71.851562">User</tspan></text>
  <path
     id="path20"
     d="m 135.31006,46.596088 c 0,1.186356 -0.10676,2.361298 -0.32027,3.524851 -0.2135,1.163551 -0.52966,2.293364 -0.94846,3.389409 -0.41881,1.096054 -0.93221,2.137286 -1.54021,3.123706 -0.60801,0.98642 -1.29894,1.899066 -2.07279,2.737949 -0.77385,0.838872 -1.61575,1.587861 -2.5257,2.246958 -0.90995,0.659097 -1.87046,1.215654 -2.88153,1.669652 -1.01109,0.454008 -2.05331,0.796717 -3.12666,1.028157 -1.07335,0.231459 -2.15722,0.34717 -3.2516,0.347189 -1.09439,-1.9e-5 -2.17826,-0.11573 -3.25162,-0.347189 -1.07336,-0.23144 -2.11558,-0.574149 -3.12666,-1.028157 -1.01108,-0.453998 -1.97159,-1.010555 -2.88154,-1.669662 -0.90994,-0.659096 -1.75184,-1.408076 -2.52569,-2.246948 -0.77385,-0.838883 -1.46478,-1.751529 -2.07279,-2.737949 -0.60801,-0.98642 -1.12142,-2.027652 -1.54022,-3.123706 -0.4188,-1.096045 -0.73495,-2.225858 -0.94846,-3.389409 -0.21349,-1.163553 -0.32024,-2.338495 -0.32024,-3.524851 0,-1.186355 0.10675,-2.3613 0.32024,-3.524861 0.21351,-1.163562 0.52966,-2.293364 0.94846,-3.389428 0.4188,-1.096035 0.9322,-2.137276 1.54021,-3.123697 0.60801,-0.98642 1.29895,-1.899067 2.0728,-2.737929 0.77385,-0.838873 1.61575,-1.58788 2.52569,-2.246978 0.90995,-0.659106 1.87046,-1.215663 2.88154,-1.669661 1.01108,-0.453989 2.0533,-0.796708 3.12665,-1.028158 1.07337,-0.23144 2.15724,-0.347159 3.25163,-0.347159 1.09438,0 2.17825,0.115719 3.2516,0.347159 1.07335,0.23145 2.11557,0.574169 3.12665,1.028158 1.01107,0.453998 1.97159,1.010555 2.88154,1.66968 0.90995,0.659098 1.75185,1.408086 2.5257,2.246959 0.77385,0.838862 1.46478,1.751509 2.07279,2.737929 0.608,0.986421 1.1214,2.027662 1.54021,3.123697 0.4188,1.096064 0.73496,2.225866 0.94846,3.389428 0.21351,1.163561 0.32027,2.338506 0.32027,3.524861 z"
     style="fill:#f4f5f9;stroke:#2e358b;stroke-width:2.85503;stroke-miterlimit:10" />
  <path
     id="path21"
     d="m 149.59625,88.43747 c 0,0.7786 -0.0497,1.55535 -0.14904,2.33021 -0.0994,0.77486 -0.24794,1.54411 -0.44574,2.30778 -0.19777,0.76365 -0.44379,1.51802 -0.73808,2.26311 -0.29428,0.74509 -0.63541,1.47728 -1.02336,2.19663 -0.38793,0.71934 -0.82084,1.42235 -1.29873,2.10905 -0.4779,0.68666 -0.99846,1.3537 -1.56167,2.00108 -0.56321,0.64739 -1.16638,1.27203 -1.8095,1.8739 -0.64312,0.60187 -1.32308,1.17809 -2.03994,1.72865 -0.71684,0.55056 -1.46707,1.07282 -2.25072,1.56677 -0.78364,0.49394 -1.59693,0.95721 -2.43985,1.38977 -0.84291,0.43257 -1.71139,0.83239 -2.60546,1.19942 -0.89406,0.36705 -1.80938,0.69954 -2.74598,0.99748 -0.9366,0.29797 -1.88994,0.55996 -2.86005,0.786 -0.9701,0.22601 -1.95231,0.41498 -2.9466,0.56686 -0.99428,0.15191 -1.99585,0.26603 -3.00472,0.34233 -1.00889,0.0763 -2.02021,0.11448 -3.03397,0.11448 -1.01376,0 -2.02508,-0.0381 -3.03396,-0.11448 -1.00888,-0.0763 -2.01048,-0.19041 -3.00477,-0.34231 -0.99428,-0.1519 -1.97647,-0.34085 -2.94658,-0.56686 -0.97011,-0.22603 -1.92347,-0.48804 -2.86006,-0.78601 -0.9366,-0.29795 -1.85192,-0.63044 -2.74598,-0.99747 -0.89406,-0.36705 -1.76255,-0.76687 -2.60546,-1.19944 -0.84291,-0.43256 -1.656186,-0.89583 -2.439836,-1.38977 -0.78365,-0.49395 -1.53389,-1.01621 -2.25073,-1.56677 -0.71683,-0.55056 -1.39681,-1.12678 -2.03993,-1.72866 -0.64313,-0.60186 -1.2463,-1.2265 -1.80952,-1.87391 -0.563208,-0.64739 -1.083762,-1.31443 -1.561646,-2.00108 -0.477885,-0.68668 -0.910798,-1.3897 -1.298755,-2.10905 -0.387942,-0.71933 -0.72906,-1.45152 -1.023339,-2.19661 -0.294279,-0.74509 -0.540311,-1.49946 -0.738085,-2.26311 -0.197768,-0.76367 -0.346342,-1.53291 -0.44571,-2.30777 -0.09937,-0.77487 -0.149047,-1.55162 -0.149047,-2.33022 0,-0.7786 0.04968,-1.55533 0.149047,-2.33019 0.09937,-0.77486 0.247942,-1.54413 0.44571,-2.30779 0.197774,-0.76365 0.443806,-1.51802 0.738085,-2.2631 0.294279,-0.74508 0.635397,-1.47731 1.023339,-2.19665 0.387957,-0.71935 0.82087,-1.42235 1.298755,-2.10904 0.477884,-0.68666 0.998438,-1.3537 1.561646,-2.0011 0.56322,-0.64738 1.16639,-1.272014 1.80951,-1.873884 0.64313,-0.601869 1.32311,-1.178101 2.03994,-1.728656 0.71684,-0.550567 1.46708,-1.072813 2.25073,-1.566761 0.78365,-0.493956 1.596926,-0.957216 2.439836,-1.3898 0.84291,-0.432563 1.7114,-0.832357 2.60546,-1.199382 0.89406,-0.367055 1.80938,-0.699551 2.74598,-0.997518 0.93659,-0.297968 1.88995,-0.559952 2.86006,-0.785962 0.97011,-0.226011 1.9523,-0.414971 2.94658,-0.566885 0.99429,-0.151894 1.99589,-0.265997 3.00477,-0.34231 1.00888,-0.07627 2.0202,-0.114464 3.03396,-0.114483 1.01376,1.9e-5 2.02508,0.03823 3.03395,0.114483 1.00889,0.07636 2.01046,0.190416 3.00474,0.34231 0.99429,0.151914 1.9765,0.340874 2.94661,0.566885 0.9701,0.22601 1.92344,0.487994 2.86004,0.785962 0.9366,0.297967 1.85192,0.630463 2.74598,0.997518 0.89407,0.367025 1.76255,0.766819 2.60546,1.199382 0.84292,0.432584 1.65621,0.895844 2.43985,1.38979 0.78365,0.493939 1.53388,1.016204 2.25072,1.566771 0.71686,0.550555 1.39682,1.126768 2.03994,1.728637 0.64312,0.601889 1.24629,1.226523 1.8095,1.873923 0.56321,0.6474 1.08377,1.31444 1.56167,2.0011 0.47789,0.68667 0.9108,1.38967 1.29873,2.10902 0.38795,0.71934 0.72908,1.45157 1.02336,2.19665 0.29429,0.74508 0.54031,1.49944 0.73808,2.26309 0.1978,0.76365 0.34637,1.53292 0.44574,2.30779 0.0994,0.77487 0.14904,1.5516 0.14904,2.3302 z"
     style="fill:#f4f5f9;stroke:#2e358b;stroke-width:2.85503;stroke-miterlimit:10" />
  <path
     id="path22"
     d="m 101.97562,88.43747 v 19.96976"
     style="fill:none;stroke:#2e358b;stroke-width:2.85503;stroke-miterlimit:10" />
  <path
     id="path23"
     d="m 135.31006,88.43747 v 19.96976"
     style="fill:none;stroke:#2e358b;stroke-width:2.85503;stroke-miterlimit:10" />
  <path
     id="path24"
     d="M 304.36329,451.69678 H 273.98134"
     style="fill:none;stroke:#000000;stroke-width:2.85503;stroke-miterlimit:10" />
  <path
     id="path25"
     d="m 267.55256,451.69678 8.57171,-4.27924 -2.14293,4.27924 2.14293,4.27922 z"
     style="fill:#000000;stroke:#000000;stroke-width:2.85503;stroke-miterlimit:10" />
  <path
     id="path26"
     d="M 304.36329,385.13093 H 513.89406 V 518.2626 H 304.36329 Z"
     style="fill:#ffffff;stroke:#000000;stroke-width:2.85503;stroke-miterlimit:10" />
  <path
     id="path35"
     d="m 669.61351,299.54628 v 152.1505 h -146.1001"
     style="fill:none;stroke:#000000;stroke-width:2.85503;stroke-miterlimit:10" />
  <path
     id="path36"
     d="m 517.08461,451.69678 8.57172,-4.27924 -2.14292,4.27924 2.14292,4.27922 z"
     style="fill:#000000;stroke:#000000;stroke-width:2.85503;stroke-miterlimit:10" />
  <path
     id="path37"
     d="M 564.84812,166.41461 H 774.37889 V 299.54628 H 564.84812 Z"
     style="fill:#ffffff;stroke:#000000;stroke-width:2.85503;stroke-miterlimit:10" />
  <path
     id="path42"
     d="M 157.69176,518.2626 V 660.90369 H 293.3153"
     style="fill:none;stroke:#000000;stroke-width:2.85503;stroke-miterlimit:10" />
  <path
     id="path43"
     d="m 299.74408,660.90369 -8.57171,4.27923 2.14293,-4.27923 -2.14293,-4.27923 z"
     style="fill:#000000;stroke:#000000;stroke-width:2.85503;stroke-miterlimit:10" />
  <path
     id="path44"
     d="M 54.831199,385.13092 H 264.36196 V 518.2626 H 54.831199 Z"
     style="fill:#ffffff;stroke:#000000;stroke-width:2.85503;stroke-miterlimit:10" />
  <path
     id="path45"
     d="m 512.46544,660.90369 h 42.76335"
     style="fill:none;stroke:#000000;stroke-width:2.85503;stroke-miterlimit:10" />
  <path
     id="path46"
     d="m 561.65757,660.90369 -8.57172,4.27923 2.14294,-4.27923 -2.14294,-4.27923 z"
     style="fill:#000000;stroke:#000000;stroke-width:2.85503;stroke-miterlimit:10" />
  <path
     id="path47"
     d="M 302.93467,594.33785 H 512.46544 V 727.46953 H 302.93467 Z"
     style="fill:#ffffff;stroke:#000000;stroke-width:2.85503;stroke-miterlimit:10" />
  <path
     id="path61"
     d="M 671.99455,727.46953 V 870.11061 H 522.08479"
     style="fill:none;stroke:#000000;stroke-width:2.85503;stroke-miterlimit:10" />
  <path
     id="path62"
     d="m 515.65599,870.11061 8.57173,-4.27922 -2.14293,4.27922 2.14293,4.27924 z"
     style="fill:#000000;stroke:#000000;stroke-width:2.85503;stroke-miterlimit:10" />
  <path
     id="path63"
     d="M 564.84812,594.33785 H 774.37889 V 727.46953 H 564.84812 Z"
     style="fill:#ffffff;stroke:#000000;stroke-width:2.85503;stroke-miterlimit:10" />
  <path
     id="path65"
     d="M 302.93467,803.54477 H 512.46544 V 936.67646 H 302.93467 Z"
     style="fill:#ffffff;stroke:#000000;stroke-width:2.85503;stroke-miterlimit:10" />
  <path
     id="path67"
     d="m 264.36196,232.98044 h 20.00067 8.95267"
     style="fill:none;stroke:#000000;stroke-width:2.85503;stroke-miterlimit:10" />
  <path
     id="path68"
     d="m 299.74408,232.98044 -8.57171,4.27924 2.14293,-4.27924 -2.14293,-4.27923 z"
     style="fill:#000000;stroke:#000000;stroke-width:2.85503;stroke-miterlimit:10" />
  <path
     id="path79"
     d="M 302.45847,869.15967 H 272.07652"
     style="fill:none;stroke:#000000;stroke-width:2.85503;stroke-miterlimit:10" />
  <path
     id="path80"
     d="m 265.64773,869.15967 8.57171,-4.27922 -2.14292,4.27922 2.14292,4.27924 z"
     style="fill:#000000;stroke:#000000;stroke-width:2.85503;stroke-miterlimit:10" />
  <path
     id="path81"
     d="M 53.878787,802.59383 H 263.40954 v 133.1317 H 53.878787 Z"
     style="fill:#ffffff;stroke:#000000;stroke-width:2.85503;stroke-miterlimit:10" />
  <path
     id="path61-5"
     d="M 1.602,868.47105 V 233.61446 h 42.415681"
     style="fill:none;stroke:#000000;stroke-width:3.204;stroke-miterlimit:10;stroke-dasharray:19.224, 3.204" />
  <path
     id="path62-5"
     d="m 51.049974,232.98046 -8.57173,4.27922 2.14293,-4.27922 -2.14293,-4.27924 z"
     style="fill:#000000;stroke:#000000;stroke-width:2.85503;stroke-miterlimit:10" />
  <path
     id="path69"
     d="M 54.831192,166.23944 H 264.36197 V 299.72143 H 54.831192 Z"
     style="fill:#ffffff;stroke:#000000;stroke-width:2.67415;stroke-miterlimit:10" />
  <path
     style="fill:#000000;fill-opacity:0;stroke:#000000;stroke-width:3.52528;stroke-dasharray:14.1011, 3.52528"
     d="M 9.7901915e-7,869.15967 H 53.287902"
     id="path9" />
  <text
     xml:space="preserve"
     style="font-weight:bold;font-size:13.3333px;line-height:125%;font-family:Arial;-inkscape-font-specification:'Arial, Bold';letter-spacing:0px;word-spacing:0px;text-anchor:middle;white-space:pre;inline-size:204.542;fill:#000000"
     id="text231"
     x="491.22513"
     y="32.132282"
     transform="translate(178.30979,172.29029)"><tspan
       x="491.22513"
       y="32.132282"
       id="tspan1">3. HMRC receives the request<tspan
   y="32.132282"
   id="tspan5"> </tspan></tspan><tspan
       x="491.22513"
       y="48.798908"
       id="tspan6">and sends feedback messages<tspan
   y="48.798908"
   id="tspan7"> </tspan></tspan><tspan
       x="491.22513"
       y="65.465534"
       id="tspan8">for the draft return (if there is no<tspan
   y="65.465534"
   id="tspan9"> </tspan></tspan><tspan
       x="491.22513"
       y="82.13216"
       id="tspan10">feedback, a message will be<tspan
   y="82.13216"
   id="tspan11"> </tspan></tspan><tspan
       x="491.22513"
       y="98.798786"
       id="tspan12">sent to that effect)</tspan></text>
  <text
     xml:space="preserve"
     style="font-weight:bold;font-size:13.3333px;line-height:125%;font-family:Arial;-inkscape-font-specification:'Arial, Bold';letter-spacing:0px;word-spacing:0px;text-anchor:middle;white-space:pre;inline-size:204.542;fill:#000000"
     id="text241"
     x="490.97998"
     y="34.467644"
     transform="translate(-81.975493,397.00456)"><tspan
       x="490.97998"
       y="34.467644"
       id="tspan13">4. Software receives HTTP 200<tspan
   y="34.467644"
   id="tspan14"> </tspan></tspan><tspan
       x="490.97998"
       y="51.134266"
       id="tspan15">response and presents the<tspan
   y="51.134266"
   id="tspan16"> </tspan></tspan><tspan
       x="490.97998"
       y="67.800892"
       id="tspan17">messages to the customer in<tspan
   y="67.800892"
   id="tspan18"> </tspan></tspan><tspan
       x="490.97998"
       y="84.467518"
       id="tspan19">full</tspan></text>
  <text
     xml:space="preserve"
     style="font-weight:bold;font-size:13.3333px;line-height:125%;font-family:Arial;-inkscape-font-specification:'Arial, Bold';letter-spacing:0px;word-spacing:0px;text-anchor:middle;white-space:pre;inline-size:204.542;fill:#000000"
     id="text244"
     x="215.62367"
     y="43.87204"
     transform="translate(-56.323664,402.94192)"><tspan
       x="215.62367"
       y="43.87204"
       id="tspan21">5. Customer views the<tspan
   y="43.87204"
   id="tspan22"> </tspan></tspan><tspan
       x="215.62367"
       y="60.538662"
       id="tspan23">messages</tspan></text>
  <text
     xml:space="preserve"
     style="font-weight:bold;font-size:13.3333px;line-height:125%;font-family:Arial;-inkscape-font-specification:'Arial, Bold';letter-spacing:0px;word-spacing:0px;text-anchor:middle;white-space:pre;inline-size:204.542;fill:#000000"
     id="text284"
     x="303.38565"
     y="23.192694"
     transform="translate(104.2134,591.16163)"><tspan
       x="303.38565"
       y="23.192694"
       id="tspan24">6. Software calls the<tspan
   y="23.192694"
   id="tspan25"> </tspan></tspan><tspan
       x="303.38565"
       y="39.859318"
       id="tspan26">acknowledge-report endpoint,<tspan
   y="39.859318"
   id="tspan27"> </tspan></tspan><tspan
       x="303.38565"
       y="56.525944"
       id="tspan28">sending the date and time that<tspan
   y="56.525944"
   id="tspan29"> </tspan></tspan><tspan
       x="303.38565"
       y="73.19257"
       id="tspan30">the messages were displayed to<tspan
   y="73.19257"
   id="tspan31"> </tspan></tspan><tspan
       x="303.38565"
       y="89.859195"
       id="tspan32">the user (even if only a &quot;no<tspan
   y="89.859195"
   id="tspan33"> </tspan></tspan><tspan
       x="303.38565"
       y="106.52582"
       id="tspan34">feedback&quot; message was<tspan
   y="106.52582"
   id="tspan35"> </tspan></tspan><tspan
       x="303.38565"
       y="123.19245"
       id="tspan36">displayed)</tspan></text>
  <text
     xml:space="preserve"
     style="font-weight:bold;font-size:13.3333px;line-height:125%;font-family:Arial;-inkscape-font-specification:'Arial, Bold';letter-spacing:0px;word-spacing:0px;text-anchor:middle;white-space:pre;inline-size:204.542;fill:#000000"
     id="text289"
     x="282.83945"
     y="41.234196"
     transform="translate(386.32119,606.54127)"><tspan
       x="282.83945"
       y="41.234196"
       id="tspan37">7. HMRC receives the<tspan
   y="41.234196"
   id="tspan38"> </tspan></tspan><tspan
       x="282.83945"
       y="57.900821"
       id="tspan39">presentation receipt and returns<tspan
   y="57.900821"
   id="tspan40"> </tspan></tspan><tspan
       x="282.83945"
       y="74.567447"
       id="tspan41">a HTTP 204 response</tspan></text>
  <text
     xml:space="preserve"
     style="font-weight:bold;font-size:13.3333px;line-height:125%;font-family:Arial;-inkscape-font-specification:'Arial, Bold';letter-spacing:0px;word-spacing:0px;text-anchor:middle;white-space:pre;inline-size:204.542;fill:#000000"
     id="text292"
     x="293.42578"
     y="49.600731"
     transform="translate(114.00409,815.71498)"><tspan
       x="293.42578"
       y="49.600731"
       id="tspan42">8. Software receives the HTTP<tspan
   y="49.600731"
   id="tspan43"> </tspan></tspan><tspan
       x="293.42578"
       y="66.267353"
       id="tspan44">204 response</tspan></text>
  <text
     xml:space="preserve"
     style="font-weight:bold;font-size:13.3333px;line-height:125%;font-family:Arial;-inkscape-font-specification:'Arial, Bold';letter-spacing:0px;word-spacing:0px;text-anchor:middle;white-space:pre;inline-size:204.542;fill:#000000"
     id="text303"
     x="195.01244"
     y="19.479591"
     transform="translate(-36.580118,819.79735)"><tspan
       x="195.01244"
       y="19.479591"
       id="tspan45">9. Customer updates the return<tspan
   y="19.479591"
   id="tspan46"> </tspan></tspan><tspan
       x="195.01244"
       y="36.146215"
       id="tspan47">if necessary, then either<tspan
   y="36.146215"
   id="tspan48"> </tspan></tspan><tspan
       x="195.01244"
       y="52.812839"
       id="tspan49">requests further feedback or<tspan
   y="52.812839"
   id="tspan50"> </tspan></tspan><tspan
       x="195.01244"
       y="69.479465"
       id="tspan51">formally submits the return<tspan
   y="69.479465"
   id="tspan52"> </tspan></tspan><tspan
       x="195.01244"
       y="86.146091"
       id="tspan53">(END)</tspan></text>
  <text
     xml:space="preserve"
     x="171.78242"
     y="211.36916"
     id="text11"
     style="font-weight:bold;font-size:13.3333px;line-height:125%;font-family:Arial;-inkscape-font-specification:'Arial, Bold';letter-spacing:0px;word-spacing:0px;text-anchor:middle;white-space:pre;inline-size:204.542;fill:#000000"
     transform="translate(-12.286558,-8.3333113)"><tspan
       x="171.78242"
       y="211.36916"
       id="tspan54">1. When the VAT period ends,<tspan
   y="211.36916"
   id="tspan55"> </tspan></tspan><tspan
       x="171.78242"
       y="228.03579"
       id="tspan56">the business or agent prepares<tspan
   y="228.03579"
   id="tspan57"> </tspan></tspan><tspan
       x="171.78242"
       y="244.70241"
       id="tspan58">transactional data and<tspan
   y="244.70241"
   id="tspan59"> </tspan></tspan><tspan
       x="171.78242"
       y="261.36904"
       id="tspan60">generates a draft VAT return (9<tspan
   y="261.36904"
   id="tspan61"> </tspan></tspan><tspan
       x="171.78242"
       y="278.03566"
       id="tspan62">boxes)</tspan></text>
  <path
     id="path26-5"
     d="M 304.36329,166.4146 H 513.89406 V 299.54627 H 304.36329 Z"
     style="fill:#ffffff;stroke:#000000;stroke-width:2.85503;stroke-miterlimit:10" />
  <text
     xml:space="preserve"
     style="font-weight:bold;font-size:13.3333px;line-height:125%;font-family:Arial;-inkscape-font-specification:'Arial, Bold';letter-spacing:0px;word-spacing:0px;text-anchor:middle;white-space:pre;inline-size:204.542;fill:#000000"
     id="text241-2"
     x="599.48523"
     y="105.79011"
     transform="translate(-190.13532,88.974276)"><tspan
       x="599.48523"
       y="105.79011"
       id="tspan63">2. Software sends the draft<tspan
   y="105.79011"
   id="tspan64"> </tspan></tspan><tspan
       x="599.48523"
       y="122.45674"
       id="tspan65">return to the assist endpoint,<tspan
   y="122.45674"
   id="tspan66"> </tspan></tspan><tspan
       x="599.48523"
       y="139.12336"
       id="tspan67">specifying the VRN and the<tspan
   y="139.12336"
   id="tspan68"> </tspan></tspan><tspan
       x="599.48523"
       y="155.78998"
       id="tspan69">periodKey that has been<tspan
   y="155.78998"
   id="tspan70"> </tspan></tspan><tspan
       x="599.48523"
       y="172.45661"
       id="tspan71">obtained from the obligations<tspan
   y="172.45661"
   id="tspan83"> </tspan></tspan><tspan
       x="599.48523"
       y="189.12323"
       id="tspan84">endpoint on the VAT (MTD) API</tspan></text>
</svg>
